<svg xmlns="http://www.w3.org/2000/svg" xmlns:xlink="http://www.w3.org/1999/xlink" width="500" zoomAndPan="magnify" viewBox="0 0 375 374.999991" height="500" preserveAspectRatio="xMidYMid meet" version="1.0"><defs><g/><clipPath id="31465edbf5"><path d="M 164 76.769531 L 209 76.769531 L 209 203 L 164 203 Z M 164 76.769531 " clip-rule="nonzero"/></clipPath><clipPath id="986a49304a"><path d="M 126.5625 203 L 248.8125 203 L 248.8125 226.769531 L 126.5625 226.769531 Z M 126.5625 203 " clip-rule="nonzero"/></clipPath></defs><path fill="#000000" d="M 210.148438 135.707031 L 229.59375 149.4375 L 229.59375 151.472656 L 210.148438 137.742188 Z M 210.148438 140.46875 L 229.59375 154.195312 L 229.59375 156.230469 L 210.148438 142.503906 Z M 210.148438 145.226562 L 229.59375 158.957031 L 229.59375 160.992188 L 210.148438 147.261719 Z M 210.148438 149.988281 L 229.59375 163.714844 L 229.59375 165.75 L 210.148438 152.023438 Z M 210.148438 154.746094 L 229.59375 168.476562 L 229.59375 170.511719 L 210.148438 156.78125 Z M 210.148438 159.507812 L 229.59375 173.234375 L 229.59375 175.273438 L 210.148438 161.542969 Z M 210.148438 164.265625 L 229.59375 177.992188 L 229.59375 180.03125 L 210.148438 166.300781 Z M 210.148438 169.027344 L 229.59375 182.753906 L 229.59375 184.789062 L 210.148438 171.0625 Z M 210.148438 173.785156 L 229.59375 187.515625 L 229.59375 189.550781 L 210.148438 175.824219 Z M 210.148438 178.542969 L 229.59375 192.273438 L 229.59375 194.308594 L 210.148438 180.582031 Z M 210.148438 183.304688 L 229.59375 197.035156 L 229.59375 199.070312 L 210.148438 185.339844 Z M 210.148438 188.066406 L 229.59375 201.792969 L 229.59375 203.828125 L 210.148438 190.101562 Z M 210.148438 192.824219 L 229.59375 206.550781 L 229.59375 208.589844 L 210.148438 194.859375 Z M 193.976562 140.765625 L 193.976562 201.953125 C 199.507812 202.265625 204.933594 202.980469 210.148438 204.082031 L 210.148438 202.34375 L 213.800781 204.925781 C 216.027344 205.480469 218.207031 206.109375 220.332031 206.808594 L 210.148438 199.621094 L 210.148438 197.585938 L 226.398438 209.058594 C 228.347656 209.863281 230.21875 210.730469 232.015625 211.648438 L 232.015625 146.882812 L 210.148438 131.449219 L 205.949219 133.867188 L 205.949219 173.46875 L 204.375 173.46875 L 204.375 134.773438 L 202.015625 136.136719 L 202.015625 151.628906 L 200.9375 151.628906 L 200.9375 136.757812 L 197.179688 138.921875 L 197.179688 163.144531 L 196.429688 163.144531 L 196.429688 139.355469 L 193.976562 140.765625 " fill-opacity="1" fill-rule="nonzero"/><g clip-path="url(#31465edbf5)"><path fill="#000000" d="M 185.484375 81.703125 L 185.800781 81.988281 L 188.609375 84.472656 L 190.199219 85.878906 L 190.199219 95.195312 L 188.609375 93.789062 L 185.800781 91.304688 L 185.484375 91.023438 Z M 185.484375 92.703125 L 185.800781 92.988281 L 188.609375 95.46875 L 190.199219 96.878906 L 190.199219 106.195312 L 188.609375 104.789062 L 185.800781 102.304688 L 185.484375 102.023438 Z M 185.484375 103.703125 L 185.800781 103.984375 L 188.609375 106.472656 L 190.199219 107.878906 L 190.199219 117.195312 L 188.609375 115.789062 L 185.800781 113.304688 L 185.484375 113.023438 Z M 185.484375 114.703125 L 185.800781 114.988281 L 188.609375 117.472656 L 190.199219 118.878906 L 190.199219 128.195312 L 188.609375 126.789062 L 185.800781 124.304688 L 185.484375 124.023438 Z M 185.484375 125.703125 L 185.800781 125.984375 L 188.609375 128.46875 L 190.199219 129.875 L 190.199219 139.191406 L 188.609375 137.785156 L 185.800781 135.300781 L 185.484375 135.019531 Z M 185.484375 136.699219 L 185.800781 136.984375 L 188.609375 139.46875 L 190.199219 140.875 L 190.199219 150.191406 L 188.609375 148.785156 L 185.800781 146.300781 L 185.484375 146.019531 Z M 185.484375 147.703125 L 185.800781 147.984375 L 188.609375 150.46875 L 190.199219 151.875 L 190.199219 161.195312 L 188.609375 159.785156 L 185.800781 157.300781 L 185.484375 157.019531 Z M 185.484375 158.703125 L 185.800781 158.980469 L 188.609375 161.464844 L 190.199219 162.875 L 190.199219 172.195312 L 188.609375 170.785156 L 185.800781 168.300781 L 185.484375 168.019531 Z M 185.484375 169.699219 L 185.800781 169.980469 L 188.609375 172.464844 L 190.199219 173.871094 L 190.199219 183.191406 L 188.609375 181.785156 L 185.800781 179.296875 L 185.484375 179.015625 Z M 185.484375 180.699219 L 185.800781 180.980469 L 188.609375 183.464844 L 190.199219 184.875 L 190.199219 194.191406 L 188.609375 192.785156 L 185.800781 190.296875 L 185.484375 190.015625 Z M 191.046875 86.628906 L 191.828125 87.320312 L 195.042969 90.164062 L 195.761719 90.800781 L 195.761719 100.117188 L 195.042969 99.480469 L 191.828125 96.636719 L 191.046875 95.945312 Z M 191.046875 97.628906 L 191.828125 98.316406 L 195.042969 101.164062 L 195.761719 101.800781 L 195.761719 111.117188 L 195.042969 110.480469 L 191.828125 107.636719 L 191.046875 106.945312 Z M 191.046875 108.628906 L 191.828125 109.316406 L 195.042969 112.164062 L 195.761719 112.800781 L 195.761719 122.117188 L 195.042969 121.480469 L 191.828125 118.636719 L 191.046875 117.945312 Z M 191.046875 119.628906 L 191.828125 120.316406 L 195.042969 123.164062 L 195.761719 123.800781 L 195.761719 133.117188 L 195.042969 132.480469 L 191.828125 129.636719 L 191.046875 128.945312 Z M 196.605469 91.550781 L 198.257812 93.011719 L 201.324219 95.726562 L 201.324219 105.042969 L 198.257812 102.332031 L 196.605469 100.867188 Z M 196.605469 102.550781 L 198.257812 104.011719 L 201.324219 106.722656 L 201.324219 116.042969 L 198.257812 113.332031 L 196.605469 111.867188 Z M 196.605469 113.550781 L 198.257812 115.011719 L 201.324219 117.722656 L 201.324219 127.042969 L 198.257812 124.332031 L 196.605469 122.867188 Z M 202.171875 96.472656 L 206.886719 100.652344 L 206.886719 109.96875 L 202.171875 105.792969 Z M 202.171875 107.472656 L 206.886719 111.652344 L 206.886719 120.96875 L 202.171875 116.792969 Z M 164.414062 90.394531 L 164.414062 111.429688 L 177.402344 116.710938 L 178.609375 117.203125 L 178.609375 202.117188 C 181.164062 201.914062 183.742188 201.800781 186.339844 201.773438 L 185.800781 201.296875 L 185.484375 201.015625 L 185.484375 191.695312 L 185.800781 191.980469 L 188.609375 194.464844 L 190.199219 195.871094 L 190.199219 201.800781 C 190.480469 201.804688 190.765625 201.8125 191.046875 201.824219 L 191.046875 196.621094 L 191.828125 197.3125 L 192.039062 197.5 L 192.039062 195.816406 L 191.828125 195.628906 L 191.046875 194.941406 L 191.046875 185.621094 L 191.828125 186.3125 L 192.039062 186.5 L 192.039062 184.816406 L 191.828125 184.628906 L 191.046875 183.941406 L 191.046875 174.621094 L 191.828125 175.3125 L 192.039062 175.5 L 192.039062 173.820312 L 191.828125 173.632812 L 191.046875 172.941406 L 191.046875 163.625 L 191.828125 164.316406 L 192.039062 164.503906 L 192.039062 162.820312 L 191.828125 162.632812 L 191.046875 161.941406 L 191.046875 152.625 L 191.828125 153.316406 L 192.039062 153.5 L 192.039062 151.820312 L 191.828125 151.632812 L 191.046875 150.945312 L 191.046875 141.625 L 191.828125 142.316406 L 192.039062 142.503906 L 192.039062 140.820312 L 191.828125 140.632812 L 191.046875 139.945312 L 191.046875 130.625 L 191.828125 131.316406 L 195.042969 134.160156 L 195.761719 134.796875 L 195.761719 137.5 L 196.605469 137.011719 L 196.605469 135.546875 L 197.609375 136.433594 L 198.367188 135.996094 L 198.761719 135.773438 L 198.257812 135.332031 L 196.605469 133.867188 L 196.605469 124.550781 L 198.257812 126.011719 L 201.324219 128.722656 L 201.324219 134.292969 L 202.171875 133.804688 L 202.171875 129.472656 L 205.132812 132.097656 L 206.285156 131.433594 L 202.171875 127.792969 L 202.171875 118.472656 L 206.886719 122.652344 L 206.886719 131.089844 L 208.382812 130.230469 L 208.382812 98.988281 L 206.984375 97.75 L 201.277344 92.699219 L 194.847656 87.003906 L 191.625 84.160156 L 188.410156 81.308594 L 185.605469 78.824219 L 183.277344 76.769531 L 164.414062 90.394531 " fill-opacity="1" fill-rule="nonzero"/></g><path fill="#000000" d="M 142.996094 125.574219 L 159.324219 116.453125 L 159.324219 120.164062 L 161.144531 118.871094 L 175.648438 124.769531 L 175.648438 119.53125 L 159.710938 113.050781 L 142.996094 125.574219 " fill-opacity="1" fill-rule="nonzero"/><path fill="#000000" d="M 142.996094 134.296875 L 159.324219 125.171875 L 159.324219 128.886719 L 161.144531 127.59375 L 175.648438 133.488281 L 175.648438 128.25 L 159.710938 121.769531 L 142.996094 134.296875 " fill-opacity="1" fill-rule="nonzero"/><path fill="#000000" d="M 142.996094 143.019531 L 159.324219 133.894531 L 159.324219 137.605469 L 161.144531 136.3125 L 175.648438 142.210938 L 175.648438 136.972656 L 159.710938 130.492188 L 142.996094 143.019531 " fill-opacity="1" fill-rule="nonzero"/><path fill="#000000" d="M 142.996094 151.738281 L 159.324219 142.613281 L 159.324219 146.328125 L 161.144531 145.035156 L 175.648438 150.929688 L 175.648438 145.691406 L 159.710938 139.210938 L 142.996094 151.738281 " fill-opacity="1" fill-rule="nonzero"/><path fill="#000000" d="M 142.996094 160.460938 L 159.324219 151.335938 L 159.324219 155.046875 L 161.144531 153.753906 L 175.648438 159.652344 L 175.648438 154.414062 L 159.710938 147.933594 L 142.996094 160.460938 " fill-opacity="1" fill-rule="nonzero"/><path fill="#000000" d="M 142.996094 169.179688 L 159.324219 160.054688 L 159.324219 163.769531 L 161.144531 162.476562 L 175.648438 168.371094 L 175.648438 163.132812 L 159.710938 156.652344 L 142.996094 169.179688 " fill-opacity="1" fill-rule="nonzero"/><path fill="#000000" d="M 142.996094 177.902344 L 159.324219 168.773438 L 159.324219 172.488281 L 161.144531 171.195312 L 175.648438 177.09375 L 175.648438 171.855469 L 159.710938 165.375 L 142.996094 177.902344 " fill-opacity="1" fill-rule="nonzero"/><path fill="#000000" d="M 142.996094 186.621094 L 159.324219 177.496094 L 159.324219 181.207031 L 161.144531 179.914062 L 175.648438 185.8125 L 175.648438 180.574219 L 159.710938 174.09375 L 142.996094 186.621094 " fill-opacity="1" fill-rule="nonzero"/><path fill="#000000" d="M 142.996094 195.339844 L 159.324219 186.21875 L 159.324219 189.929688 L 161.144531 188.636719 L 175.648438 194.535156 L 175.648438 189.296875 L 159.710938 182.816406 L 142.996094 195.339844 " fill-opacity="1" fill-rule="nonzero"/><path fill="#000000" d="M 142.996094 204.0625 L 159.324219 194.9375 L 159.324219 198.648438 L 161.148438 197.355469 L 173.984375 202.578125 C 174.539062 202.507812 175.09375 202.445312 175.648438 202.386719 L 175.648438 198.015625 L 159.710938 191.535156 L 142.996094 204.0625 " fill-opacity="1" fill-rule="nonzero"/><path fill="#000000" d="M 147.117188 209.695312 C 148.214844 209.210938 149.335938 208.75 150.480469 208.308594 C 151.003906 208.105469 151.53125 207.90625 152.0625 207.714844 L 159.324219 203.65625 L 159.324219 205.414062 C 162.058594 204.667969 164.871094 204.039062 167.734375 203.519531 L 159.710938 200.253906 L 147.117188 209.695312 " fill-opacity="1" fill-rule="nonzero"/><g clip-path="url(#986a49304a)"><path fill="#000000" d="M 187.503906 203.707031 C 214.234375 203.707031 237.347656 213.109375 248.390625 226.773438 C 232.292969 217.894531 210.9375 212.484375 187.503906 212.484375 C 180.882812 212.484375 174.425781 212.914062 168.207031 213.734375 C 167.78125 213.789062 167.363281 213.847656 166.941406 213.910156 C 165.257812 214.144531 163.59375 214.410156 161.945312 214.703125 C 161.464844 214.789062 160.988281 214.878906 160.511719 214.96875 C 147.785156 217.378906 136.261719 221.453125 126.621094 226.769531 C 137.664062 213.109375 160.777344 203.707031 187.503906 203.707031 " fill-opacity="1" fill-rule="nonzero"/></g><g fill="#000000" fill-opacity="1"><g transform="translate(56.837235, 260.826266)"><g><path d="M 11.09375 -24.28125 C 14.207031 -24.28125 17.019531 -23.453125 19.53125 -21.796875 L 17.84375 -18.21875 C 15.382812 -19.707031 13.03125 -20.453125 10.78125 -20.453125 C 9.5625 -20.453125 8.601562 -20.234375 7.90625 -19.796875 C 7.207031 -19.359375 6.859375 -18.738281 6.859375 -17.9375 C 6.859375 -17.132812 7.175781 -16.453125 7.8125 -15.890625 C 8.457031 -15.328125 9.257812 -14.910156 10.21875 -14.640625 C 11.1875 -14.378906 12.234375 -14.046875 13.359375 -13.640625 C 14.484375 -13.242188 15.523438 -12.820312 16.484375 -12.375 C 17.453125 -11.925781 18.253906 -11.222656 18.890625 -10.265625 C 19.523438 -9.316406 19.84375 -8.164062 19.84375 -6.8125 C 19.84375 -4.707031 19 -3.019531 17.3125 -1.75 C 15.625 -0.488281 13.4375 0.140625 10.75 0.140625 C 8.90625 0.140625 7.125 -0.203125 5.40625 -0.890625 C 3.6875 -1.578125 2.179688 -2.507812 0.890625 -3.6875 L 2.65625 -7.203125 C 3.875 -6.078125 5.207031 -5.207031 6.65625 -4.59375 C 8.113281 -3.988281 9.5 -3.6875 10.8125 -3.6875 C 12.238281 -3.6875 13.347656 -3.941406 14.140625 -4.453125 C 14.929688 -4.972656 15.328125 -5.691406 15.328125 -6.609375 C 15.328125 -7.441406 15.003906 -8.140625 14.359375 -8.703125 C 13.710938 -9.265625 12.90625 -9.675781 11.9375 -9.9375 C 10.976562 -10.195312 9.9375 -10.515625 8.8125 -10.890625 C 7.6875 -11.273438 6.640625 -11.675781 5.671875 -12.09375 C 4.710938 -12.519531 3.910156 -13.203125 3.265625 -14.140625 C 2.628906 -15.085938 2.3125 -16.226562 2.3125 -17.5625 C 2.3125 -19.601562 3.113281 -21.234375 4.71875 -22.453125 C 6.320312 -23.671875 8.445312 -24.28125 11.09375 -24.28125 Z M 11.09375 -24.28125 "/></g></g></g><g fill="#000000" fill-opacity="1"><g transform="translate(78.941348, 260.826266)"><g><path d="M 28.65625 0 L 24.890625 0 L 24.859375 -18.015625 L 17.25 -2.515625 L 14.59375 -2.515625 L 6.984375 -18.015625 L 6.984375 0 L 3.171875 0 L 3.171875 -24.109375 L 7.984375 -24.109375 L 15.9375 -8.09375 L 23.859375 -24.109375 L 28.65625 -24.109375 Z M 28.65625 0 "/></g></g></g><g fill="#000000" fill-opacity="1"><g transform="translate(111.477666, 260.826266)"><g><path d="M 18.734375 -5.4375 L 6.578125 -5.4375 L 4.265625 0 L 0.03125 0 L 10.671875 -24.109375 L 14.84375 -24.109375 L 25.375 0 L 21.046875 0 Z M 17.1875 -9.0625 L 12.640625 -19.765625 L 8.09375 -9.0625 Z M 17.1875 -9.0625 "/></g></g></g><g fill="#000000" fill-opacity="1"><g transform="translate(137.575629, 260.826266)"><g><path d="M 18.453125 0 L 14.046875 -7.296875 C 13.816406 -7.273438 13.453125 -7.265625 12.953125 -7.265625 L 7.234375 -7.265625 L 7.234375 0 L 3.171875 0 L 3.171875 -24.109375 L 12.953125 -24.109375 C 16.023438 -24.109375 18.410156 -23.390625 20.109375 -21.953125 C 21.804688 -20.515625 22.65625 -18.488281 22.65625 -15.875 C 22.65625 -13.945312 22.222656 -12.316406 21.359375 -10.984375 C 20.503906 -9.648438 19.273438 -8.675781 17.671875 -8.0625 L 23.078125 0 Z M 7.234375 -10.921875 L 12.953125 -10.921875 C 16.847656 -10.921875 18.796875 -12.535156 18.796875 -15.765625 C 18.796875 -18.890625 16.847656 -20.453125 12.953125 -20.453125 L 7.234375 -20.453125 Z M 7.234375 -10.921875 "/></g></g></g><g fill="#000000" fill-opacity="1"><g transform="translate(163.157144, 260.826266)"><g><path d="M 19.625 -20.453125 L 11.984375 -20.453125 L 11.984375 0 L 7.921875 0 L 7.921875 -20.453125 L 0.3125 -20.453125 L 0.3125 -24.109375 L 19.625 -24.109375 Z M 19.625 -20.453125 "/></g></g></g><g fill="#000000" fill-opacity="1"><g transform="translate(183.78078, 260.826266)"><g><path d="M 13.84375 -24.203125 C 15.539062 -24.203125 17.195312 -23.875 18.8125 -23.21875 C 20.4375 -22.570312 21.832031 -21.660156 23 -20.484375 L 20.625 -17.53125 C 19.75 -18.46875 18.710938 -19.210938 17.515625 -19.765625 C 16.328125 -20.316406 15.125 -20.59375 13.90625 -20.59375 C 11.5 -20.59375 9.460938 -19.769531 7.796875 -18.125 C 6.128906 -16.488281 5.296875 -14.488281 5.296875 -12.125 C 5.296875 -9.738281 6.128906 -7.722656 7.796875 -6.078125 C 9.460938 -4.429688 11.5 -3.609375 13.90625 -3.609375 C 16.414062 -3.609375 18.65625 -4.5625 20.625 -6.46875 L 23.03125 -3.78125 C 21.789062 -2.570312 20.34375 -1.609375 18.6875 -0.890625 C 17.039062 -0.179688 15.378906 0.171875 13.703125 0.171875 C 10.171875 0.171875 7.195312 -1.003906 4.78125 -3.359375 C 2.375 -5.710938 1.171875 -8.625 1.171875 -12.09375 C 1.171875 -15.507812 2.390625 -18.378906 4.828125 -20.703125 C 7.273438 -23.035156 10.28125 -24.203125 13.84375 -24.203125 Z M 13.84375 -24.203125 "/></g></g></g><g fill="#000000" fill-opacity="1"><g transform="translate(208.467115, 260.826266)"><g><path d="M 4.859375 -20.703125 C 7.316406 -23.035156 10.347656 -24.203125 13.953125 -24.203125 C 17.554688 -24.203125 20.582031 -23.035156 23.03125 -20.703125 C 25.488281 -18.378906 26.71875 -15.492188 26.71875 -12.046875 C 26.71875 -8.609375 25.488281 -5.710938 23.03125 -3.359375 C 20.582031 -1.003906 17.554688 0.171875 13.953125 0.171875 C 10.347656 0.171875 7.316406 -1.003906 4.859375 -3.359375 C 2.398438 -5.710938 1.171875 -8.609375 1.171875 -12.046875 C 1.171875 -15.492188 2.398438 -18.378906 4.859375 -20.703125 Z M 13.984375 -20.5625 C 11.597656 -20.5625 9.550781 -19.738281 7.84375 -18.09375 C 6.144531 -16.457031 5.296875 -14.441406 5.296875 -12.046875 C 5.296875 -9.660156 6.148438 -7.632812 7.859375 -5.96875 C 9.578125 -4.3125 11.617188 -3.484375 13.984375 -3.484375 C 16.347656 -3.484375 18.367188 -4.3125 20.046875 -5.96875 C 21.722656 -7.632812 22.5625 -9.660156 22.5625 -12.046875 C 22.5625 -14.441406 21.722656 -16.457031 20.046875 -18.09375 C 18.367188 -19.738281 16.347656 -20.5625 13.984375 -20.5625 Z M 13.984375 -20.5625 "/></g></g></g><g fill="#000000" fill-opacity="1"><g transform="translate(237.044017, 260.826266)"><g><path d="M 24.078125 0 L 20.078125 0 L 7.234375 -17.28125 L 7.234375 0 L 3.171875 0 L 3.171875 -24.109375 L 7.15625 -24.109375 L 20.078125 -6.78125 L 20.078125 -24.109375 L 24.078125 -24.109375 Z M 24.078125 0 "/></g></g></g><g fill="#000000" fill-opacity="1"><g transform="translate(265.001177, 260.826266)"><g><path d="M 3.171875 -24.109375 L 13.046875 -24.109375 C 16.648438 -24.109375 19.628906 -22.96875 21.984375 -20.6875 C 24.335938 -18.414062 25.515625 -15.535156 25.515625 -12.046875 C 25.515625 -8.554688 24.332031 -5.675781 21.96875 -3.40625 C 19.601562 -1.132812 16.597656 0 12.953125 0 L 3.171875 0 Z M 7.234375 -20.453125 L 7.234375 -3.65625 L 13.15625 -3.65625 C 15.519531 -3.65625 17.488281 -4.441406 19.0625 -6.015625 C 20.632812 -7.585938 21.421875 -9.585938 21.421875 -12.015625 C 21.421875 -14.453125 20.609375 -16.46875 18.984375 -18.0625 C 17.367188 -19.65625 15.367188 -20.453125 12.984375 -20.453125 Z M 7.234375 -20.453125 "/></g></g></g><g fill="#000000" fill-opacity="1"><g transform="translate(292.373039, 260.826266)"><g><path d="M 4.859375 -20.703125 C 7.316406 -23.035156 10.347656 -24.203125 13.953125 -24.203125 C 17.554688 -24.203125 20.582031 -23.035156 23.03125 -20.703125 C 25.488281 -18.378906 26.71875 -15.492188 26.71875 -12.046875 C 26.71875 -8.609375 25.488281 -5.710938 23.03125 -3.359375 C 20.582031 -1.003906 17.554688 0.171875 13.953125 0.171875 C 10.347656 0.171875 7.316406 -1.003906 4.859375 -3.359375 C 2.398438 -5.710938 1.171875 -8.609375 1.171875 -12.046875 C 1.171875 -15.492188 2.398438 -18.378906 4.859375 -20.703125 Z M 13.984375 -20.5625 C 11.597656 -20.5625 9.550781 -19.738281 7.84375 -18.09375 C 6.144531 -16.457031 5.296875 -14.441406 5.296875 -12.046875 C 5.296875 -9.660156 6.148438 -7.632812 7.859375 -5.96875 C 9.578125 -4.3125 11.617188 -3.484375 13.984375 -3.484375 C 16.347656 -3.484375 18.367188 -4.3125 20.046875 -5.96875 C 21.722656 -7.632812 22.5625 -9.660156 22.5625 -12.046875 C 22.5625 -14.441406 21.722656 -16.457031 20.046875 -18.09375 C 18.367188 -19.738281 16.347656 -20.5625 13.984375 -20.5625 Z M 13.984375 -20.5625 "/></g></g></g></svg>