<svg xmlns="http://www.w3.org/2000/svg" xmlns:xlink="http://www.w3.org/1999/xlink" width="1920" zoomAndPan="magnify" viewBox="0 0 1440 809.999993" height="1080" preserveAspectRatio="xMidYMid meet" version="1.0"><defs><filter x="0%" y="0%" width="100%" height="100%" id="9f9d4442de"><feColorMatrix values="0 0 0 0 1 0 0 0 0 1 0 0 0 0 1 0 0 0 1 0" color-interpolation-filters="sRGB"/></filter><g/><mask id="cec8e3fca0"><g filter="url(#9f9d4442de)"><rect x="-144" width="1728" fill="#000000" y="-80.999999" height="971.999992" fill-opacity="0.79"/></g></mask><clipPath id="468d39854a"><path d="M 39 0.515625 L 86 0.515625 L 86 131 L 39 131 Z M 39 0.515625 " clip-rule="nonzero"/></clipPath><clipPath id="de54c45a65"><path d="M 0.324219 132 L 127 132 L 127 156.515625 L 0.324219 156.515625 Z M 0.324219 132 " clip-rule="nonzero"/></clipPath><clipPath id="0c2d92743c"><rect x="0" width="127" y="0" height="157"/></clipPath></defs><g mask="url(#cec8e3fca0)"><g transform="matrix(1, 0, 0, 1, 641, 304)"><g clip-path="url(#0c2d92743c)"><path fill="#000000" d="M 87.121094 61.71875 L 107.316406 75.976562 L 107.316406 78.089844 L 87.121094 63.832031 Z M 87.121094 66.664062 L 107.316406 80.917969 L 107.316406 83.03125 L 87.121094 68.777344 Z M 87.121094 71.605469 L 107.316406 85.863281 L 107.316406 87.976562 L 87.121094 73.71875 Z M 87.121094 76.546875 L 107.316406 90.804688 L 107.316406 92.917969 L 87.121094 78.660156 Z M 87.121094 81.492188 L 107.316406 95.746094 L 107.316406 97.859375 L 87.121094 83.605469 Z M 87.121094 86.433594 L 107.316406 100.691406 L 107.316406 102.804688 L 87.121094 88.546875 Z M 87.121094 91.375 L 107.316406 105.632812 L 107.316406 107.746094 L 87.121094 93.492188 Z M 87.121094 96.320312 L 107.316406 110.574219 L 107.316406 112.6875 L 87.121094 98.433594 Z M 87.121094 101.261719 L 107.316406 115.519531 L 107.316406 117.632812 L 87.121094 103.378906 Z M 87.121094 106.203125 L 107.316406 120.460938 L 107.316406 122.574219 L 87.121094 108.320312 Z M 87.121094 111.148438 L 107.316406 125.402344 L 107.316406 127.515625 L 87.121094 113.261719 Z M 87.121094 116.089844 L 107.316406 130.347656 L 107.316406 132.460938 L 87.121094 118.203125 Z M 87.121094 121.03125 L 107.316406 135.289062 L 107.316406 137.402344 L 87.121094 123.148438 Z M 70.328125 66.972656 L 70.328125 130.511719 C 76.074219 130.835938 81.707031 131.582031 87.121094 132.722656 L 87.121094 130.917969 L 90.917969 133.597656 C 93.226562 134.175781 95.492188 134.828125 97.699219 135.554688 L 87.121094 128.089844 L 87.121094 125.976562 L 104 137.890625 C 106.019531 138.726562 107.964844 139.625 109.832031 140.578125 L 109.832031 73.328125 L 87.121094 57.296875 L 82.761719 59.808594 L 82.761719 100.933594 L 81.128906 100.933594 L 81.128906 60.75 L 78.675781 62.164062 L 78.675781 78.253906 L 77.558594 78.253906 L 77.558594 62.808594 L 73.65625 65.058594 L 73.65625 90.210938 L 72.875 90.210938 L 72.875 65.507812 L 70.328125 66.972656 " fill-opacity="1" fill-rule="nonzero"/><g clip-path="url(#468d39854a)"><path fill="#000000" d="M 61.507812 5.640625 L 61.839844 5.933594 L 64.757812 8.515625 L 66.40625 9.976562 L 66.40625 19.652344 L 64.757812 18.191406 L 61.839844 15.609375 L 61.507812 15.316406 Z M 61.507812 17.0625 L 61.839844 17.355469 L 64.757812 19.9375 L 66.40625 21.398438 L 66.40625 31.074219 L 64.757812 29.613281 L 61.839844 27.03125 L 61.507812 26.738281 Z M 61.507812 28.484375 L 61.839844 28.78125 L 64.757812 31.359375 L 66.40625 32.820312 L 66.40625 42.496094 L 64.757812 41.039062 L 61.839844 38.453125 L 61.507812 38.164062 Z M 61.507812 39.910156 L 61.839844 40.203125 L 64.757812 42.78125 L 66.40625 44.242188 L 66.40625 53.921875 L 64.757812 52.457031 L 61.839844 49.878906 L 61.507812 49.585938 Z M 61.507812 51.328125 L 61.839844 51.621094 L 64.757812 54.203125 L 66.40625 55.664062 L 66.40625 65.339844 L 64.757812 63.878906 L 61.839844 61.300781 L 61.507812 61.007812 Z M 61.507812 62.75 L 61.839844 63.042969 L 64.757812 65.625 L 66.40625 67.085938 L 66.40625 76.761719 L 64.757812 75.300781 L 61.839844 72.722656 L 61.507812 72.425781 Z M 61.507812 74.175781 L 61.839844 74.46875 L 64.757812 77.046875 L 66.40625 78.507812 L 66.40625 88.1875 L 64.757812 86.722656 L 61.839844 84.144531 L 61.507812 83.851562 Z M 61.507812 85.597656 L 61.839844 85.890625 L 64.757812 88.46875 L 66.40625 89.933594 L 66.40625 99.609375 L 64.757812 98.144531 L 61.839844 95.566406 L 61.507812 95.273438 Z M 61.507812 97.015625 L 61.839844 97.3125 L 64.757812 99.890625 L 66.40625 101.351562 L 66.40625 111.027344 L 64.757812 109.566406 L 61.839844 106.984375 L 61.507812 106.695312 Z M 61.507812 108.4375 L 61.839844 108.734375 L 64.757812 111.3125 L 66.40625 112.777344 L 66.40625 122.449219 L 64.757812 120.988281 L 61.839844 118.40625 L 61.507812 118.117188 Z M 67.289062 10.757812 L 68.097656 11.472656 L 71.4375 14.429688 L 72.183594 15.085938 L 72.183594 24.761719 L 71.4375 24.101562 L 68.097656 21.148438 L 67.289062 20.429688 Z M 67.289062 22.175781 L 68.097656 22.894531 L 71.4375 25.851562 L 72.183594 26.507812 L 72.183594 36.1875 L 71.4375 35.523438 L 68.097656 32.570312 L 67.289062 31.851562 Z M 67.289062 33.597656 L 68.097656 34.316406 L 71.4375 37.273438 L 72.183594 37.929688 L 72.183594 47.609375 L 71.4375 46.945312 L 68.097656 43.992188 L 67.289062 43.277344 Z M 67.289062 45.023438 L 68.097656 45.738281 L 71.4375 48.695312 L 72.183594 49.355469 L 72.183594 59.03125 L 71.4375 58.371094 L 68.097656 55.417969 L 67.289062 54.699219 Z M 73.0625 15.863281 L 74.777344 17.382812 L 77.960938 20.203125 L 77.960938 29.875 L 74.777344 27.058594 L 73.0625 25.542969 Z M 73.0625 27.289062 L 74.777344 28.804688 L 77.960938 31.621094 L 77.960938 41.300781 L 74.777344 38.484375 L 73.0625 36.964844 Z M 73.0625 38.710938 L 74.777344 40.230469 L 77.960938 43.042969 L 77.960938 52.722656 L 74.777344 49.90625 L 73.0625 48.386719 Z M 78.839844 20.980469 L 83.738281 25.316406 L 83.738281 34.992188 L 78.839844 30.65625 Z M 78.839844 32.402344 L 83.738281 36.738281 L 83.738281 46.414062 L 78.839844 42.078125 Z M 39.628906 14.667969 L 39.628906 36.507812 L 53.117188 41.996094 L 54.371094 42.503906 L 54.371094 130.679688 C 57.023438 130.472656 59.703125 130.351562 62.398438 130.324219 L 61.839844 129.832031 L 61.507812 129.539062 L 61.507812 119.863281 L 61.839844 120.15625 L 64.757812 122.734375 L 66.40625 124.195312 L 66.40625 130.351562 C 66.699219 130.359375 66.992188 130.367188 67.289062 130.378906 L 67.289062 124.976562 L 68.097656 125.691406 L 68.316406 125.886719 L 68.316406 124.140625 L 68.097656 123.945312 L 67.289062 123.230469 L 67.289062 113.550781 L 68.097656 114.269531 L 68.316406 114.464844 L 68.316406 112.71875 L 68.097656 112.523438 L 67.289062 111.804688 L 67.289062 102.128906 L 68.097656 102.847656 L 68.316406 103.039062 L 68.316406 101.296875 L 68.097656 101.101562 L 67.289062 100.386719 L 67.289062 90.710938 L 68.097656 91.429688 L 68.316406 91.621094 L 68.316406 89.875 L 68.097656 89.679688 L 67.289062 88.960938 L 67.289062 79.289062 L 68.097656 80.007812 L 68.316406 80.199219 L 68.316406 78.453125 L 68.097656 78.257812 L 67.289062 77.542969 L 67.289062 67.863281 L 68.097656 68.582031 L 68.316406 68.777344 L 68.316406 67.03125 L 68.097656 66.835938 L 67.289062 66.121094 L 67.289062 56.441406 L 68.097656 57.160156 L 71.4375 60.113281 L 72.183594 60.773438 L 72.183594 63.582031 L 73.0625 63.074219 L 73.0625 61.554688 L 74.101562 62.472656 L 74.890625 62.019531 L 75.296875 61.789062 L 74.777344 61.328125 L 73.0625 59.808594 L 73.0625 50.132812 L 74.777344 51.652344 L 77.960938 54.46875 L 77.960938 60.253906 L 78.839844 59.746094 L 78.839844 55.246094 L 81.917969 57.972656 L 83.113281 57.28125 L 78.839844 53.5 L 78.839844 43.824219 L 83.738281 48.160156 L 83.738281 56.925781 L 85.289062 56.03125 L 85.289062 23.589844 L 83.835938 22.304688 L 77.914062 17.058594 L 74.570312 14.101562 L 71.230469 11.144531 L 67.890625 8.191406 L 64.550781 5.230469 L 61.632812 2.652344 L 59.21875 0.515625 L 39.628906 14.667969 " fill-opacity="1" fill-rule="nonzero"/></g><path fill="#000000" d="M 17.390625 51.199219 L 34.34375 41.722656 L 34.34375 45.578125 L 36.238281 44.238281 L 51.296875 50.359375 L 51.296875 44.921875 L 34.746094 38.191406 L 17.390625 51.199219 " fill-opacity="1" fill-rule="nonzero"/><path fill="#000000" d="M 17.390625 60.253906 L 34.34375 50.78125 L 34.34375 54.636719 L 36.238281 53.292969 L 51.296875 59.417969 L 51.296875 53.976562 L 34.746094 47.246094 L 17.390625 60.253906 " fill-opacity="1" fill-rule="nonzero"/><path fill="#000000" d="M 17.390625 69.3125 L 34.34375 59.835938 L 34.34375 63.691406 L 36.238281 62.347656 L 51.296875 68.472656 L 51.296875 63.035156 L 34.746094 56.304688 L 17.390625 69.3125 " fill-opacity="1" fill-rule="nonzero"/><path fill="#000000" d="M 17.390625 78.367188 L 34.34375 68.890625 L 34.34375 72.746094 L 36.238281 71.40625 L 51.296875 77.527344 L 51.296875 72.089844 L 34.746094 65.359375 L 17.390625 78.367188 " fill-opacity="1" fill-rule="nonzero"/><path fill="#000000" d="M 17.390625 87.421875 L 34.34375 77.949219 L 34.34375 81.804688 L 36.238281 80.460938 L 51.296875 86.585938 L 51.296875 81.144531 L 34.746094 74.414062 L 17.390625 87.421875 " fill-opacity="1" fill-rule="nonzero"/><path fill="#000000" d="M 17.390625 96.476562 L 34.34375 87.003906 L 34.34375 90.859375 L 36.238281 89.515625 L 51.296875 95.640625 L 51.296875 90.199219 L 34.746094 83.46875 L 17.390625 96.476562 " fill-opacity="1" fill-rule="nonzero"/><path fill="#000000" d="M 17.390625 105.535156 L 34.34375 96.058594 L 34.34375 99.914062 L 36.238281 98.570312 L 51.296875 104.695312 L 51.296875 99.257812 L 34.746094 92.527344 L 17.390625 105.535156 " fill-opacity="1" fill-rule="nonzero"/><path fill="#000000" d="M 17.390625 114.589844 L 34.34375 105.113281 L 34.34375 108.96875 L 36.238281 107.628906 L 51.296875 113.75 L 51.296875 108.3125 L 34.746094 101.582031 L 17.390625 114.589844 " fill-opacity="1" fill-rule="nonzero"/><path fill="#000000" d="M 17.390625 123.644531 L 34.34375 114.171875 L 34.34375 118.027344 L 36.238281 116.683594 L 51.296875 122.808594 L 51.296875 117.367188 L 34.746094 110.636719 L 17.390625 123.644531 " fill-opacity="1" fill-rule="nonzero"/><path fill="#000000" d="M 17.390625 132.703125 L 34.34375 123.226562 L 34.34375 127.082031 L 36.238281 125.738281 L 49.566406 131.160156 L 49.570312 131.160156 C 50.144531 131.089844 50.71875 131.023438 51.296875 130.960938 L 51.296875 126.421875 L 34.746094 119.691406 L 17.390625 132.703125 " fill-opacity="1" fill-rule="nonzero"/><path fill="#000000" d="M 21.667969 138.550781 C 22.808594 138.046875 23.972656 137.570312 25.164062 137.109375 C 25.707031 136.898438 26.253906 136.695312 26.804688 136.496094 L 34.34375 132.28125 L 34.34375 134.105469 C 37.183594 133.332031 40.105469 132.675781 43.082031 132.140625 L 34.746094 128.75 L 21.667969 138.550781 " fill-opacity="1" fill-rule="nonzero"/><g clip-path="url(#de54c45a65)"><path fill="#000000" d="M 63.609375 132.332031 C 91.367188 132.332031 115.367188 142.097656 126.835938 156.285156 C 110.117188 147.066406 87.941406 141.445312 63.609375 141.445312 C 56.730469 141.445312 50.023438 141.894531 43.566406 142.746094 C 43.128906 142.804688 42.691406 142.863281 42.253906 142.925781 C 40.507812 143.171875 38.777344 143.449219 37.066406 143.753906 C 36.570312 143.84375 36.074219 143.933594 35.578125 144.027344 C 22.363281 146.53125 10.394531 150.761719 0.382812 156.28125 C 11.851562 142.097656 35.855469 132.332031 63.609375 132.332031 " fill-opacity="1" fill-rule="nonzero"/></g></g></g></g><g fill="#000000" fill-opacity="1"><g transform="translate(371.544362, 488.982475)"><g><path d="M 6.84375 0.1875 C 6.113281 0.1875 5.398438 0.0859375 4.703125 -0.109375 C 4.003906 -0.316406 3.363281 -0.617188 2.78125 -1.015625 C 2.207031 -1.421875 1.71875 -1.925781 1.3125 -2.53125 C 0.914062 -3.144531 0.65625 -3.851562 0.53125 -4.65625 L 3.46875 -5.40625 C 3.539062 -4.71875 3.738281 -4.15625 4.0625 -3.71875 C 4.382812 -3.289062 4.789062 -2.96875 5.28125 -2.75 C 5.769531 -2.539062 6.304688 -2.4375 6.890625 -2.4375 C 7.484375 -2.4375 7.976562 -2.53125 8.375 -2.71875 C 8.78125 -2.90625 9.085938 -3.15625 9.296875 -3.46875 C 9.503906 -3.789062 9.609375 -4.148438 9.609375 -4.546875 C 9.609375 -4.972656 9.492188 -5.335938 9.265625 -5.640625 C 9.046875 -5.941406 8.742188 -6.203125 8.359375 -6.421875 C 7.984375 -6.648438 7.554688 -6.859375 7.078125 -7.046875 C 6.609375 -7.234375 6.117188 -7.425781 5.609375 -7.625 C 5.109375 -7.832031 4.617188 -8.0625 4.140625 -8.3125 C 3.671875 -8.5625 3.242188 -8.859375 2.859375 -9.203125 C 2.484375 -9.554688 2.179688 -9.972656 1.953125 -10.453125 C 1.734375 -10.941406 1.625 -11.519531 1.625 -12.1875 C 1.625 -12.925781 1.757812 -13.578125 2.03125 -14.140625 C 2.300781 -14.703125 2.675781 -15.175781 3.15625 -15.5625 C 3.632812 -15.957031 4.179688 -16.253906 4.796875 -16.453125 C 5.421875 -16.648438 6.082031 -16.75 6.78125 -16.75 C 7.800781 -16.75 8.75 -16.515625 9.625 -16.046875 C 10.5 -15.585938 11.222656 -14.859375 11.796875 -13.859375 L 9.328125 -12.34375 C 9.046875 -12.90625 8.671875 -13.335938 8.203125 -13.640625 C 7.734375 -13.953125 7.222656 -14.109375 6.671875 -14.109375 C 6.273438 -14.109375 5.921875 -14.035156 5.609375 -13.890625 C 5.296875 -13.742188 5.046875 -13.535156 4.859375 -13.265625 C 4.679688 -13.003906 4.59375 -12.695312 4.59375 -12.34375 C 4.59375 -11.957031 4.703125 -11.625 4.921875 -11.34375 C 5.148438 -11.070312 5.453125 -10.832031 5.828125 -10.625 C 6.210938 -10.414062 6.640625 -10.21875 7.109375 -10.03125 C 7.585938 -9.851562 8.078125 -9.664062 8.578125 -9.46875 C 9.085938 -9.269531 9.578125 -9.039062 10.046875 -8.78125 C 10.523438 -8.519531 10.953125 -8.210938 11.328125 -7.859375 C 11.710938 -7.503906 12.015625 -7.078125 12.234375 -6.578125 C 12.460938 -6.085938 12.578125 -5.5 12.578125 -4.8125 C 12.578125 -4.03125 12.425781 -3.328125 12.125 -2.703125 C 11.832031 -2.085938 11.421875 -1.5625 10.890625 -1.125 C 10.367188 -0.695312 9.757812 -0.367188 9.0625 -0.140625 C 8.375 0.078125 7.632812 0.1875 6.84375 0.1875 Z M 6.84375 0.1875 "/></g></g></g><g fill="#000000" fill-opacity="1"><g transform="translate(386.730488, 488.982475)"><g><path d="M 2.125 0 L 2.125 -16.5 L 5.09375 -16.5 L 5.09375 0 Z M 2.125 0 "/></g></g></g><g fill="#000000" fill-opacity="1"><g transform="translate(395.858341, 488.982475)"><g><path d="M 6.84375 0.1875 C 6.113281 0.1875 5.398438 0.0859375 4.703125 -0.109375 C 4.003906 -0.316406 3.363281 -0.617188 2.78125 -1.015625 C 2.207031 -1.421875 1.71875 -1.925781 1.3125 -2.53125 C 0.914062 -3.144531 0.65625 -3.851562 0.53125 -4.65625 L 3.46875 -5.40625 C 3.539062 -4.71875 3.738281 -4.15625 4.0625 -3.71875 C 4.382812 -3.289062 4.789062 -2.96875 5.28125 -2.75 C 5.769531 -2.539062 6.304688 -2.4375 6.890625 -2.4375 C 7.484375 -2.4375 7.976562 -2.53125 8.375 -2.71875 C 8.78125 -2.90625 9.085938 -3.15625 9.296875 -3.46875 C 9.503906 -3.789062 9.609375 -4.148438 9.609375 -4.546875 C 9.609375 -4.972656 9.492188 -5.335938 9.265625 -5.640625 C 9.046875 -5.941406 8.742188 -6.203125 8.359375 -6.421875 C 7.984375 -6.648438 7.554688 -6.859375 7.078125 -7.046875 C 6.609375 -7.234375 6.117188 -7.425781 5.609375 -7.625 C 5.109375 -7.832031 4.617188 -8.0625 4.140625 -8.3125 C 3.671875 -8.5625 3.242188 -8.859375 2.859375 -9.203125 C 2.484375 -9.554688 2.179688 -9.972656 1.953125 -10.453125 C 1.734375 -10.941406 1.625 -11.519531 1.625 -12.1875 C 1.625 -12.925781 1.757812 -13.578125 2.03125 -14.140625 C 2.300781 -14.703125 2.675781 -15.175781 3.15625 -15.5625 C 3.632812 -15.957031 4.179688 -16.253906 4.796875 -16.453125 C 5.421875 -16.648438 6.082031 -16.75 6.78125 -16.75 C 7.800781 -16.75 8.75 -16.515625 9.625 -16.046875 C 10.5 -15.585938 11.222656 -14.859375 11.796875 -13.859375 L 9.328125 -12.34375 C 9.046875 -12.90625 8.671875 -13.335938 8.203125 -13.640625 C 7.734375 -13.953125 7.222656 -14.109375 6.671875 -14.109375 C 6.273438 -14.109375 5.921875 -14.035156 5.609375 -13.890625 C 5.296875 -13.742188 5.046875 -13.535156 4.859375 -13.265625 C 4.679688 -13.003906 4.59375 -12.695312 4.59375 -12.34375 C 4.59375 -11.957031 4.703125 -11.625 4.921875 -11.34375 C 5.148438 -11.070312 5.453125 -10.832031 5.828125 -10.625 C 6.210938 -10.414062 6.640625 -10.21875 7.109375 -10.03125 C 7.585938 -9.851562 8.078125 -9.664062 8.578125 -9.46875 C 9.085938 -9.269531 9.578125 -9.039062 10.046875 -8.78125 C 10.523438 -8.519531 10.953125 -8.210938 11.328125 -7.859375 C 11.710938 -7.503906 12.015625 -7.078125 12.234375 -6.578125 C 12.460938 -6.085938 12.578125 -5.5 12.578125 -4.8125 C 12.578125 -4.03125 12.425781 -3.328125 12.125 -2.703125 C 11.832031 -2.085938 11.421875 -1.5625 10.890625 -1.125 C 10.367188 -0.695312 9.757812 -0.367188 9.0625 -0.140625 C 8.375 0.078125 7.632812 0.1875 6.84375 0.1875 Z M 6.84375 0.1875 "/></g></g></g><g fill="#000000" fill-opacity="1"><g transform="translate(411.044467, 488.982475)"><g><path d="M 5.40625 0 L 5.40625 -13.859375 L 0.234375 -13.859375 L 0.234375 -16.5 L 13.53125 -16.5 L 13.53125 -13.859375 L 8.375 -13.859375 L 8.375 0 Z M 5.40625 0 "/></g></g></g><g fill="#000000" fill-opacity="1"><g transform="translate(426.73253, 488.982475)"><g><path d="M 2.125 0 L 2.125 -16.5 L 13.109375 -16.5 L 13.109375 -13.78125 L 5.09375 -13.78125 L 5.09375 -9.609375 L 12.5625 -9.609375 L 12.5625 -6.890625 L 5.09375 -6.890625 L 5.09375 -2.796875 L 13.109375 -2.796875 L 13.109375 0 Z M 2.125 0 "/></g></g></g><g fill="#000000" fill-opacity="1"><g transform="translate(443.179337, 488.982475)"><g><path d="M 2.125 0 L 2.125 -16.5 L 6.125 -16.5 L 10.5 -4.765625 L 14.875 -16.5 L 18.875 -16.5 L 18.875 0 L 16.03125 0 L 16.03125 -12.34375 L 11.9375 -1.4375 L 9.0625 -1.4375 L 4.96875 -12.34375 L 4.96875 0 Z M 2.125 0 "/></g></g></g><g fill="#000000" fill-opacity="1"><g transform="translate(466.081299, 488.982475)"><g><path d="M 0.140625 0 L 6.75 -16.5 L 8.96875 -16.5 L 15.546875 0 L 12.34375 0 L 11.078125 -3.59375 L 4.65625 -3.59375 L 3.375 0 Z M 5.671875 -6.125 L 10.0625 -6.125 L 7.875 -12.140625 Z M 5.671875 -6.125 "/></g></g></g><g fill="#000000" fill-opacity="1"><g transform="translate(483.672057, 488.982475)"><g/></g></g><g fill="#000000" fill-opacity="1"><g transform="translate(491.329116, 488.982475)"><g><path d="M 2.125 0 L 2.125 -16.5 L 6.921875 -16.5 C 8.796875 -16.5 10.367188 -16.171875 11.640625 -15.515625 C 12.910156 -14.867188 13.867188 -13.921875 14.515625 -12.671875 C 15.171875 -11.429688 15.5 -9.914062 15.5 -8.125 C 15.5 -6.414062 15.164062 -4.953125 14.5 -3.734375 C 13.832031 -2.523438 12.859375 -1.597656 11.578125 -0.953125 C 10.304688 -0.316406 8.742188 0 6.890625 0 Z M 5.09375 -2.71875 L 6.59375 -2.71875 C 7.507812 -2.71875 8.332031 -2.8125 9.0625 -3 C 9.789062 -3.195312 10.410156 -3.507812 10.921875 -3.9375 C 11.441406 -4.375 11.835938 -4.945312 12.109375 -5.65625 C 12.390625 -6.363281 12.53125 -7.234375 12.53125 -8.265625 C 12.53125 -9.566406 12.34375 -10.625 11.96875 -11.4375 C 11.59375 -12.25 10.988281 -12.84375 10.15625 -13.21875 C 9.320312 -13.59375 8.226562 -13.78125 6.875 -13.78125 L 5.09375 -13.78125 Z M 5.09375 -2.71875 "/></g></g></g><g fill="#000000" fill-opacity="1"><g transform="translate(509.69029, 488.982475)"><g><path d="M 2.125 0 L 2.125 -16.5 L 13.109375 -16.5 L 13.109375 -13.78125 L 5.09375 -13.78125 L 5.09375 -9.609375 L 12.5625 -9.609375 L 12.5625 -6.890625 L 5.09375 -6.890625 L 5.09375 -2.796875 L 13.109375 -2.796875 L 13.109375 0 Z M 2.125 0 "/></g></g></g><g fill="#000000" fill-opacity="1"><g transform="translate(526.137097, 488.982475)"><g/></g></g><g fill="#000000" fill-opacity="1"><g transform="translate(533.794155, 488.982475)"><g><path d="M 8.953125 0.234375 C 7.867188 0.234375 6.894531 0.0859375 6.03125 -0.203125 C 5.175781 -0.503906 4.429688 -0.921875 3.796875 -1.453125 C 3.160156 -1.984375 2.628906 -2.601562 2.203125 -3.3125 C 1.785156 -4.019531 1.472656 -4.796875 1.265625 -5.640625 C 1.054688 -6.484375 0.953125 -7.359375 0.953125 -8.265625 C 0.953125 -9.160156 1.050781 -10.03125 1.25 -10.875 C 1.457031 -11.71875 1.769531 -12.492188 2.1875 -13.203125 C 2.601562 -13.921875 3.125 -14.546875 3.75 -15.078125 C 4.382812 -15.617188 5.128906 -16.035156 5.984375 -16.328125 C 6.847656 -16.617188 7.828125 -16.765625 8.921875 -16.765625 C 10.003906 -16.765625 11.003906 -16.582031 11.921875 -16.21875 C 12.847656 -15.863281 13.664062 -15.332031 14.375 -14.625 C 15.09375 -13.925781 15.675781 -13.0625 16.125 -12.03125 L 13.484375 -10.9375 C 13.242188 -11.675781 12.894531 -12.285156 12.4375 -12.765625 C 11.976562 -13.242188 11.445312 -13.597656 10.84375 -13.828125 C 10.25 -14.066406 9.601562 -14.1875 8.90625 -14.1875 C 8.03125 -14.1875 7.273438 -14.023438 6.640625 -13.703125 C 6.015625 -13.390625 5.5 -12.960938 5.09375 -12.421875 C 4.6875 -11.878906 4.382812 -11.257812 4.1875 -10.5625 C 4 -9.863281 3.90625 -9.132812 3.90625 -8.375 C 3.90625 -7.5625 4 -6.789062 4.1875 -6.0625 C 4.382812 -5.34375 4.6875 -4.707031 5.09375 -4.15625 C 5.507812 -3.613281 6.03125 -3.1875 6.65625 -2.875 C 7.289062 -2.570312 8.054688 -2.421875 8.953125 -2.421875 C 9.742188 -2.421875 10.460938 -2.585938 11.109375 -2.921875 C 11.765625 -3.253906 12.304688 -3.726562 12.734375 -4.34375 C 13.171875 -4.96875 13.445312 -5.695312 13.5625 -6.53125 L 9.8125 -6.53125 L 9.8125 -8.921875 L 16.4375 -8.921875 L 16.4375 0 L 14.09375 0 L 13.828125 -2.328125 C 13.535156 -1.804688 13.144531 -1.351562 12.65625 -0.96875 C 12.175781 -0.582031 11.617188 -0.285156 10.984375 -0.078125 C 10.359375 0.128906 9.679688 0.234375 8.953125 0.234375 Z M 8.953125 0.234375 "/></g></g></g><g fill="#000000" fill-opacity="1"><g transform="translate(553.614451, 488.982475)"><g><path d="M 2.125 0 L 2.125 -16.5 L 13.109375 -16.5 L 13.109375 -13.78125 L 5.09375 -13.78125 L 5.09375 -9.609375 L 12.5625 -9.609375 L 12.5625 -6.890625 L 5.09375 -6.890625 L 5.09375 -2.796875 L 13.109375 -2.796875 L 13.109375 0 Z M 2.125 0 "/></g></g></g><g fill="#000000" fill-opacity="1"><g transform="translate(570.061258, 488.982475)"><g><path d="M 6.84375 0.1875 C 6.113281 0.1875 5.398438 0.0859375 4.703125 -0.109375 C 4.003906 -0.316406 3.363281 -0.617188 2.78125 -1.015625 C 2.207031 -1.421875 1.71875 -1.925781 1.3125 -2.53125 C 0.914062 -3.144531 0.65625 -3.851562 0.53125 -4.65625 L 3.46875 -5.40625 C 3.539062 -4.71875 3.738281 -4.15625 4.0625 -3.71875 C 4.382812 -3.289062 4.789062 -2.96875 5.28125 -2.75 C 5.769531 -2.539062 6.304688 -2.4375 6.890625 -2.4375 C 7.484375 -2.4375 7.976562 -2.53125 8.375 -2.71875 C 8.78125 -2.90625 9.085938 -3.15625 9.296875 -3.46875 C 9.503906 -3.789062 9.609375 -4.148438 9.609375 -4.546875 C 9.609375 -4.972656 9.492188 -5.335938 9.265625 -5.640625 C 9.046875 -5.941406 8.742188 -6.203125 8.359375 -6.421875 C 7.984375 -6.648438 7.554688 -6.859375 7.078125 -7.046875 C 6.609375 -7.234375 6.117188 -7.425781 5.609375 -7.625 C 5.109375 -7.832031 4.617188 -8.0625 4.140625 -8.3125 C 3.671875 -8.5625 3.242188 -8.859375 2.859375 -9.203125 C 2.484375 -9.554688 2.179688 -9.972656 1.953125 -10.453125 C 1.734375 -10.941406 1.625 -11.519531 1.625 -12.1875 C 1.625 -12.925781 1.757812 -13.578125 2.03125 -14.140625 C 2.300781 -14.703125 2.675781 -15.175781 3.15625 -15.5625 C 3.632812 -15.957031 4.179688 -16.253906 4.796875 -16.453125 C 5.421875 -16.648438 6.082031 -16.75 6.78125 -16.75 C 7.800781 -16.75 8.75 -16.515625 9.625 -16.046875 C 10.5 -15.585938 11.222656 -14.859375 11.796875 -13.859375 L 9.328125 -12.34375 C 9.046875 -12.90625 8.671875 -13.335938 8.203125 -13.640625 C 7.734375 -13.953125 7.222656 -14.109375 6.671875 -14.109375 C 6.273438 -14.109375 5.921875 -14.035156 5.609375 -13.890625 C 5.296875 -13.742188 5.046875 -13.535156 4.859375 -13.265625 C 4.679688 -13.003906 4.59375 -12.695312 4.59375 -12.34375 C 4.59375 -11.957031 4.703125 -11.625 4.921875 -11.34375 C 5.148438 -11.070312 5.453125 -10.832031 5.828125 -10.625 C 6.210938 -10.414062 6.640625 -10.21875 7.109375 -10.03125 C 7.585938 -9.851562 8.078125 -9.664062 8.578125 -9.46875 C 9.085938 -9.269531 9.578125 -9.039062 10.046875 -8.78125 C 10.523438 -8.519531 10.953125 -8.210938 11.328125 -7.859375 C 11.710938 -7.503906 12.015625 -7.078125 12.234375 -6.578125 C 12.460938 -6.085938 12.578125 -5.5 12.578125 -4.8125 C 12.578125 -4.03125 12.425781 -3.328125 12.125 -2.703125 C 11.832031 -2.085938 11.421875 -1.5625 10.890625 -1.125 C 10.367188 -0.695312 9.757812 -0.367188 9.0625 -0.140625 C 8.375 0.078125 7.632812 0.1875 6.84375 0.1875 Z M 6.84375 0.1875 "/></g></g></g><g fill="#000000" fill-opacity="1"><g transform="translate(585.247384, 488.982475)"><g><path d="M 5.40625 0 L 5.40625 -13.859375 L 0.234375 -13.859375 L 0.234375 -16.5 L 13.53125 -16.5 L 13.53125 -13.859375 L 8.375 -13.859375 L 8.375 0 Z M 5.40625 0 "/></g></g></g><g fill="#000000" fill-opacity="1"><g transform="translate(600.935448, 488.982475)"><g><path d="M 9.328125 -17.71875 C 8.960938 -17.71875 8.648438 -17.773438 8.390625 -17.890625 C 8.128906 -18.003906 7.90625 -18.144531 7.71875 -18.3125 C 7.53125 -18.476562 7.359375 -18.644531 7.203125 -18.8125 C 7.054688 -18.976562 6.910156 -19.117188 6.765625 -19.234375 C 6.617188 -19.347656 6.460938 -19.40625 6.296875 -19.40625 C 6.054688 -19.40625 5.867188 -19.265625 5.734375 -18.984375 C 5.597656 -18.710938 5.53125 -18.316406 5.53125 -17.796875 L 3.90625 -17.796875 C 3.90625 -18.867188 4.128906 -19.691406 4.578125 -20.265625 C 5.023438 -20.847656 5.628906 -21.140625 6.390625 -21.140625 C 6.722656 -21.140625 7.007812 -21.082031 7.25 -20.96875 C 7.5 -20.863281 7.71875 -20.726562 7.90625 -20.5625 C 8.101562 -20.40625 8.28125 -20.242188 8.4375 -20.078125 C 8.59375 -19.910156 8.742188 -19.769531 8.890625 -19.65625 C 9.035156 -19.550781 9.191406 -19.5 9.359375 -19.5 C 9.554688 -19.5 9.722656 -19.628906 9.859375 -19.890625 C 10.003906 -20.160156 10.078125 -20.554688 10.078125 -21.078125 L 11.78125 -21.078125 C 11.78125 -19.992188 11.5625 -19.160156 11.125 -18.578125 C 10.6875 -18.003906 10.085938 -17.71875 9.328125 -17.71875 Z M 0.140625 0 L 6.75 -16.5 L 8.96875 -16.5 L 15.546875 0 L 12.34375 0 L 11.078125 -3.59375 L 4.65625 -3.59375 L 3.375 0 Z M 5.671875 -6.125 L 10.0625 -6.125 L 7.875 -12.140625 Z M 5.671875 -6.125 "/></g></g></g><g fill="#000000" fill-opacity="1"><g transform="translate(618.526206, 488.982475)"><g><path d="M 8.921875 0.234375 C 7.828125 0.234375 6.847656 0.0859375 5.984375 -0.203125 C 5.128906 -0.503906 4.382812 -0.921875 3.75 -1.453125 C 3.125 -1.984375 2.601562 -2.609375 2.1875 -3.328125 C 1.769531 -4.046875 1.457031 -4.820312 1.25 -5.65625 C 1.050781 -6.5 0.953125 -7.367188 0.953125 -8.265625 C 0.953125 -9.160156 1.050781 -10.023438 1.25 -10.859375 C 1.457031 -11.691406 1.769531 -12.46875 2.1875 -13.1875 C 2.601562 -13.90625 3.125 -14.53125 3.75 -15.0625 C 4.382812 -15.59375 5.128906 -16.003906 5.984375 -16.296875 C 6.847656 -16.597656 7.828125 -16.75 8.921875 -16.75 C 10.015625 -16.75 10.988281 -16.597656 11.84375 -16.296875 C 12.707031 -16.003906 13.453125 -15.59375 14.078125 -15.0625 C 14.710938 -14.53125 15.238281 -13.90625 15.65625 -13.1875 C 16.070312 -12.46875 16.378906 -11.691406 16.578125 -10.859375 C 16.785156 -10.023438 16.890625 -9.160156 16.890625 -8.265625 C 16.890625 -7.367188 16.785156 -6.5 16.578125 -5.65625 C 16.378906 -4.820312 16.070312 -4.046875 15.65625 -3.328125 C 15.238281 -2.609375 14.710938 -1.984375 14.078125 -1.453125 C 13.453125 -0.921875 12.707031 -0.503906 11.84375 -0.203125 C 10.988281 0.0859375 10.015625 0.234375 8.921875 0.234375 Z M 8.921875 -2.390625 C 9.804688 -2.390625 10.554688 -2.546875 11.171875 -2.859375 C 11.785156 -3.179688 12.28125 -3.613281 12.65625 -4.15625 C 13.039062 -4.695312 13.320312 -5.320312 13.5 -6.03125 C 13.675781 -6.738281 13.765625 -7.484375 13.765625 -8.265625 C 13.765625 -9.035156 13.675781 -9.769531 13.5 -10.46875 C 13.320312 -11.175781 13.039062 -11.800781 12.65625 -12.34375 C 12.28125 -12.882812 11.785156 -13.3125 11.171875 -13.625 C 10.554688 -13.945312 9.804688 -14.109375 8.921875 -14.109375 C 8.035156 -14.109375 7.285156 -13.945312 6.671875 -13.625 C 6.054688 -13.3125 5.554688 -12.882812 5.171875 -12.34375 C 4.796875 -11.800781 4.519531 -11.175781 4.34375 -10.46875 C 4.175781 -9.769531 4.09375 -9.035156 4.09375 -8.265625 C 4.09375 -7.484375 4.175781 -6.738281 4.34375 -6.03125 C 4.519531 -5.320312 4.796875 -4.695312 5.171875 -4.15625 C 5.554688 -3.613281 6.054688 -3.179688 6.671875 -2.859375 C 7.285156 -2.546875 8.035156 -2.390625 8.921875 -2.390625 Z M 8.921875 -2.390625 "/></g></g></g><g fill="#000000" fill-opacity="1"><g transform="translate(638.276465, 488.982475)"><g/></g></g><g fill="#000000" fill-opacity="1"><g transform="translate(645.933523, 488.982475)"><g><path d="M 2.125 0 L 2.125 -16.5 L 6.921875 -16.5 C 8.796875 -16.5 10.367188 -16.171875 11.640625 -15.515625 C 12.910156 -14.867188 13.867188 -13.921875 14.515625 -12.671875 C 15.171875 -11.429688 15.5 -9.914062 15.5 -8.125 C 15.5 -6.414062 15.164062 -4.953125 14.5 -3.734375 C 13.832031 -2.523438 12.859375 -1.597656 11.578125 -0.953125 C 10.304688 -0.316406 8.742188 0 6.890625 0 Z M 5.09375 -2.71875 L 6.59375 -2.71875 C 7.507812 -2.71875 8.332031 -2.8125 9.0625 -3 C 9.789062 -3.195312 10.410156 -3.507812 10.921875 -3.9375 C 11.441406 -4.375 11.835938 -4.945312 12.109375 -5.65625 C 12.390625 -6.363281 12.53125 -7.234375 12.53125 -8.265625 C 12.53125 -9.566406 12.34375 -10.625 11.96875 -11.4375 C 11.59375 -12.25 10.988281 -12.84375 10.15625 -13.21875 C 9.320312 -13.59375 8.226562 -13.78125 6.875 -13.78125 L 5.09375 -13.78125 Z M 5.09375 -2.71875 "/></g></g></g><g fill="#000000" fill-opacity="1"><g transform="translate(664.294697, 488.982475)"><g><path d="M 2.125 0 L 2.125 -16.5 L 13.109375 -16.5 L 13.109375 -13.78125 L 5.09375 -13.78125 L 5.09375 -9.609375 L 12.5625 -9.609375 L 12.5625 -6.890625 L 5.09375 -6.890625 L 5.09375 -2.796875 L 13.109375 -2.796875 L 13.109375 0 Z M 2.125 0 "/></g></g></g><g fill="#000000" fill-opacity="1"><g transform="translate(680.741504, 488.982475)"><g/></g></g><g fill="#000000" fill-opacity="1"><g transform="translate(688.398562, 488.982475)"><g><path d="M 2.125 0 L 2.125 -16.5 L 6.125 -16.5 L 10.5 -4.765625 L 14.875 -16.5 L 18.875 -16.5 L 18.875 0 L 16.03125 0 L 16.03125 -12.34375 L 11.9375 -1.4375 L 9.0625 -1.4375 L 4.96875 -12.34375 L 4.96875 0 Z M 2.125 0 "/></g></g></g><g fill="#000000" fill-opacity="1"><g transform="translate(711.300524, 488.982475)"><g><path d="M 0.140625 0 L 6.75 -16.5 L 8.96875 -16.5 L 15.546875 0 L 12.34375 0 L 11.078125 -3.59375 L 4.65625 -3.59375 L 3.375 0 Z M 5.671875 -6.125 L 10.0625 -6.125 L 7.875 -12.140625 Z M 5.671875 -6.125 "/></g></g></g><g fill="#000000" fill-opacity="1"><g transform="translate(728.891282, 488.982475)"><g><path d="M 2.125 0 L 2.125 -16.5 L 5.0625 -16.5 L 12 -4.953125 L 12 -16.5 L 14.859375 -16.5 L 14.859375 0 L 11.890625 0 L 4.96875 -11.578125 L 4.96875 0 Z M 2.125 0 "/></g></g></g><g fill="#000000" fill-opacity="1"><g transform="translate(747.777741, 488.982475)"><g><path d="M 8.0625 0.234375 C 6.582031 0.234375 5.378906 -0.0351562 4.453125 -0.578125 C 3.523438 -1.128906 2.84375 -1.90625 2.40625 -2.90625 C 1.96875 -3.914062 1.75 -5.09375 1.75 -6.4375 L 1.75 -16.5 L 4.703125 -16.5 L 4.703125 -6.78125 C 4.703125 -5.882812 4.796875 -5.128906 4.984375 -4.515625 C 5.179688 -3.898438 5.519531 -3.429688 6 -3.109375 C 6.488281 -2.785156 7.175781 -2.625 8.0625 -2.625 C 8.945312 -2.625 9.628906 -2.785156 10.109375 -3.109375 C 10.597656 -3.429688 10.9375 -3.898438 11.125 -4.515625 C 11.3125 -5.128906 11.40625 -5.882812 11.40625 -6.78125 L 11.40625 -16.5 L 14.375 -16.5 L 14.375 -6.546875 C 14.375 -5.160156 14.15625 -3.957031 13.71875 -2.9375 C 13.28125 -1.925781 12.597656 -1.144531 11.671875 -0.59375 C 10.742188 -0.0390625 9.539062 0.234375 8.0625 0.234375 Z M 8.0625 0.234375 "/></g></g></g><g fill="#000000" fill-opacity="1"><g transform="translate(765.800399, 488.982475)"><g><path d="M 5.40625 0 L 5.40625 -13.859375 L 0.234375 -13.859375 L 0.234375 -16.5 L 13.53125 -16.5 L 13.53125 -13.859375 L 8.375 -13.859375 L 8.375 0 Z M 5.40625 0 "/></g></g></g><g fill="#000000" fill-opacity="1"><g transform="translate(781.488463, 488.982475)"><g><path d="M 2.125 0 L 2.125 -16.5 L 13.109375 -16.5 L 13.109375 -13.78125 L 5.09375 -13.78125 L 5.09375 -9.609375 L 12.5625 -9.609375 L 12.5625 -6.890625 L 5.09375 -6.890625 L 5.09375 -2.796875 L 13.109375 -2.796875 L 13.109375 0 Z M 2.125 0 "/></g></g></g><g fill="#000000" fill-opacity="1"><g transform="translate(797.935269, 488.982475)"><g><path d="M 2.125 0 L 2.125 -16.5 L 5.0625 -16.5 L 12 -4.953125 L 12 -16.5 L 14.859375 -16.5 L 14.859375 0 L 11.890625 0 L 4.96875 -11.578125 L 4.96875 0 Z M 2.125 0 "/></g></g></g><g fill="#000000" fill-opacity="1"><g transform="translate(816.821728, 488.982475)"><g><path d="M 16.171875 -4.515625 C 15.578125 -3.117188 14.734375 -2.019531 13.640625 -1.21875 C 12.546875 -0.414062 11.289062 0.0507812 9.875 0.1875 L 9.109375 1.171875 C 9.828125 1.265625 10.375 1.515625 10.75 1.921875 C 11.132812 2.328125 11.328125 2.84375 11.328125 3.46875 C 11.328125 3.957031 11.207031 4.398438 10.96875 4.796875 C 10.738281 5.191406 10.421875 5.503906 10.015625 5.734375 C 9.617188 5.972656 9.164062 6.09375 8.65625 6.09375 C 8.164062 6.09375 7.707031 5.953125 7.28125 5.671875 C 6.851562 5.390625 6.546875 5.03125 6.359375 4.59375 L 7.9375 3.921875 C 8 4.066406 8.097656 4.191406 8.234375 4.296875 C 8.378906 4.410156 8.539062 4.46875 8.71875 4.46875 C 9 4.46875 9.222656 4.378906 9.390625 4.203125 C 9.566406 4.035156 9.65625 3.820312 9.65625 3.5625 C 9.65625 3.195312 9.472656 2.890625 9.109375 2.640625 C 8.753906 2.398438 8.285156 2.28125 7.703125 2.28125 L 6.875 2.28125 L 8.203125 0.203125 C 6.972656 0.117188 5.898438 -0.160156 4.984375 -0.640625 C 4.078125 -1.117188 3.320312 -1.75 2.71875 -2.53125 C 2.125 -3.3125 1.679688 -4.191406 1.390625 -5.171875 C 1.097656 -6.148438 0.953125 -7.179688 0.953125 -8.265625 C 0.953125 -9.160156 1.054688 -10.03125 1.265625 -10.875 C 1.472656 -11.71875 1.785156 -12.492188 2.203125 -13.203125 C 2.617188 -13.921875 3.140625 -14.546875 3.765625 -15.078125 C 4.398438 -15.617188 5.144531 -16.035156 6 -16.328125 C 6.863281 -16.617188 7.835938 -16.765625 8.921875 -16.765625 C 10.015625 -16.765625 11.023438 -16.582031 11.953125 -16.21875 C 12.878906 -15.863281 13.695312 -15.332031 14.40625 -14.625 C 15.125 -13.925781 15.703125 -13.0625 16.140625 -12.03125 L 13.375 -10.9375 C 13.175781 -11.65625 12.859375 -12.234375 12.421875 -12.671875 C 11.992188 -13.117188 11.476562 -13.441406 10.875 -13.640625 C 10.269531 -13.847656 9.613281 -13.953125 8.90625 -13.953125 C 8.03125 -13.953125 7.273438 -13.804688 6.640625 -13.515625 C 6.015625 -13.222656 5.5 -12.820312 5.09375 -12.3125 C 4.6875 -11.800781 4.382812 -11.207031 4.1875 -10.53125 C 4 -9.851562 3.90625 -9.132812 3.90625 -8.375 C 3.90625 -7.5625 4 -6.800781 4.1875 -6.09375 C 4.382812 -5.382812 4.6875 -4.765625 5.09375 -4.234375 C 5.507812 -3.710938 6.03125 -3.304688 6.65625 -3.015625 C 7.289062 -2.722656 8.054688 -2.578125 8.953125 -2.578125 C 10.015625 -2.578125 10.910156 -2.8125 11.640625 -3.28125 C 12.378906 -3.75 12.972656 -4.535156 13.421875 -5.640625 Z M 16.171875 -4.515625 "/></g></g></g><g fill="#000000" fill-opacity="1"><g transform="translate(835.451381, 488.982475)"><g><path d="M 9.328125 -17.71875 C 8.960938 -17.71875 8.648438 -17.773438 8.390625 -17.890625 C 8.128906 -18.003906 7.90625 -18.144531 7.71875 -18.3125 C 7.53125 -18.476562 7.359375 -18.644531 7.203125 -18.8125 C 7.054688 -18.976562 6.910156 -19.117188 6.765625 -19.234375 C 6.617188 -19.347656 6.460938 -19.40625 6.296875 -19.40625 C 6.054688 -19.40625 5.867188 -19.265625 5.734375 -18.984375 C 5.597656 -18.710938 5.53125 -18.316406 5.53125 -17.796875 L 3.90625 -17.796875 C 3.90625 -18.867188 4.128906 -19.691406 4.578125 -20.265625 C 5.023438 -20.847656 5.628906 -21.140625 6.390625 -21.140625 C 6.722656 -21.140625 7.007812 -21.082031 7.25 -20.96875 C 7.5 -20.863281 7.71875 -20.726562 7.90625 -20.5625 C 8.101562 -20.40625 8.28125 -20.242188 8.4375 -20.078125 C 8.59375 -19.910156 8.742188 -19.769531 8.890625 -19.65625 C 9.035156 -19.550781 9.191406 -19.5 9.359375 -19.5 C 9.554688 -19.5 9.722656 -19.628906 9.859375 -19.890625 C 10.003906 -20.160156 10.078125 -20.554688 10.078125 -21.078125 L 11.78125 -21.078125 C 11.78125 -19.992188 11.5625 -19.160156 11.125 -18.578125 C 10.6875 -18.003906 10.085938 -17.71875 9.328125 -17.71875 Z M 0.140625 0 L 6.75 -16.5 L 8.96875 -16.5 L 15.546875 0 L 12.34375 0 L 11.078125 -3.59375 L 4.65625 -3.59375 L 3.375 0 Z M 5.671875 -6.125 L 10.0625 -6.125 L 7.875 -12.140625 Z M 5.671875 -6.125 "/></g></g></g><g fill="#000000" fill-opacity="1"><g transform="translate(853.04214, 488.982475)"><g><path d="M 8.921875 0.234375 C 7.828125 0.234375 6.847656 0.0859375 5.984375 -0.203125 C 5.128906 -0.503906 4.382812 -0.921875 3.75 -1.453125 C 3.125 -1.984375 2.601562 -2.609375 2.1875 -3.328125 C 1.769531 -4.046875 1.457031 -4.820312 1.25 -5.65625 C 1.050781 -6.5 0.953125 -7.367188 0.953125 -8.265625 C 0.953125 -9.160156 1.050781 -10.023438 1.25 -10.859375 C 1.457031 -11.691406 1.769531 -12.46875 2.1875 -13.1875 C 2.601562 -13.90625 3.125 -14.53125 3.75 -15.0625 C 4.382812 -15.59375 5.128906 -16.003906 5.984375 -16.296875 C 6.847656 -16.597656 7.828125 -16.75 8.921875 -16.75 C 10.015625 -16.75 10.988281 -16.597656 11.84375 -16.296875 C 12.707031 -16.003906 13.453125 -15.59375 14.078125 -15.0625 C 14.710938 -14.53125 15.238281 -13.90625 15.65625 -13.1875 C 16.070312 -12.46875 16.378906 -11.691406 16.578125 -10.859375 C 16.785156 -10.023438 16.890625 -9.160156 16.890625 -8.265625 C 16.890625 -7.367188 16.785156 -6.5 16.578125 -5.65625 C 16.378906 -4.820312 16.070312 -4.046875 15.65625 -3.328125 C 15.238281 -2.609375 14.710938 -1.984375 14.078125 -1.453125 C 13.453125 -0.921875 12.707031 -0.503906 11.84375 -0.203125 C 10.988281 0.0859375 10.015625 0.234375 8.921875 0.234375 Z M 8.921875 -2.390625 C 9.804688 -2.390625 10.554688 -2.546875 11.171875 -2.859375 C 11.785156 -3.179688 12.28125 -3.613281 12.65625 -4.15625 C 13.039062 -4.695312 13.320312 -5.320312 13.5 -6.03125 C 13.675781 -6.738281 13.765625 -7.484375 13.765625 -8.265625 C 13.765625 -9.035156 13.675781 -9.769531 13.5 -10.46875 C 13.320312 -11.175781 13.039062 -11.800781 12.65625 -12.34375 C 12.28125 -12.882812 11.785156 -13.3125 11.171875 -13.625 C 10.554688 -13.945312 9.804688 -14.109375 8.921875 -14.109375 C 8.035156 -14.109375 7.285156 -13.945312 6.671875 -13.625 C 6.054688 -13.3125 5.554688 -12.882812 5.171875 -12.34375 C 4.796875 -11.800781 4.519531 -11.175781 4.34375 -10.46875 C 4.175781 -9.769531 4.09375 -9.035156 4.09375 -8.265625 C 4.09375 -7.484375 4.175781 -6.738281 4.34375 -6.03125 C 4.519531 -5.320312 4.796875 -4.695312 5.171875 -4.15625 C 5.554688 -3.613281 6.054688 -3.179688 6.671875 -2.859375 C 7.285156 -2.546875 8.035156 -2.390625 8.921875 -2.390625 Z M 8.921875 -2.390625 "/></g></g></g><g fill="#000000" fill-opacity="1"><g transform="translate(872.792398, 488.982475)"><g/></g></g><g fill="#000000" fill-opacity="1"><g transform="translate(880.449456, 488.982475)"><g><path d="M 8.953125 0.234375 C 7.867188 0.234375 6.894531 0.0859375 6.03125 -0.203125 C 5.175781 -0.503906 4.429688 -0.921875 3.796875 -1.453125 C 3.160156 -1.984375 2.628906 -2.601562 2.203125 -3.3125 C 1.785156 -4.019531 1.472656 -4.796875 1.265625 -5.640625 C 1.054688 -6.484375 0.953125 -7.359375 0.953125 -8.265625 C 0.953125 -9.160156 1.054688 -10.03125 1.265625 -10.875 C 1.472656 -11.71875 1.785156 -12.492188 2.203125 -13.203125 C 2.617188 -13.921875 3.140625 -14.546875 3.765625 -15.078125 C 4.398438 -15.617188 5.144531 -16.035156 6 -16.328125 C 6.863281 -16.617188 7.835938 -16.765625 8.921875 -16.765625 C 10.015625 -16.765625 11.023438 -16.582031 11.953125 -16.21875 C 12.878906 -15.863281 13.695312 -15.332031 14.40625 -14.625 C 15.125 -13.925781 15.703125 -13.0625 16.140625 -12.03125 L 13.375 -10.9375 C 13.175781 -11.65625 12.859375 -12.234375 12.421875 -12.671875 C 11.992188 -13.117188 11.476562 -13.441406 10.875 -13.640625 C 10.269531 -13.847656 9.613281 -13.953125 8.90625 -13.953125 C 8.03125 -13.953125 7.273438 -13.804688 6.640625 -13.515625 C 6.015625 -13.222656 5.5 -12.820312 5.09375 -12.3125 C 4.6875 -11.800781 4.382812 -11.207031 4.1875 -10.53125 C 4 -9.851562 3.90625 -9.132812 3.90625 -8.375 C 3.90625 -7.5625 4 -6.800781 4.1875 -6.09375 C 4.382812 -5.382812 4.6875 -4.765625 5.09375 -4.234375 C 5.507812 -3.710938 6.03125 -3.304688 6.65625 -3.015625 C 7.289062 -2.722656 8.054688 -2.578125 8.953125 -2.578125 C 10.015625 -2.578125 10.910156 -2.8125 11.640625 -3.28125 C 12.378906 -3.75 12.972656 -4.535156 13.421875 -5.640625 L 16.171875 -4.515625 C 15.734375 -3.492188 15.15625 -2.628906 14.4375 -1.921875 C 13.726562 -1.210938 12.910156 -0.675781 11.984375 -0.3125 C 11.054688 0.0507812 10.046875 0.234375 8.953125 0.234375 Z M 8.953125 0.234375 "/></g></g></g><g fill="#000000" fill-opacity="1"><g transform="translate(899.07911, 488.982475)"><g><path d="M 8.921875 0.234375 C 7.828125 0.234375 6.847656 0.0859375 5.984375 -0.203125 C 5.128906 -0.503906 4.382812 -0.921875 3.75 -1.453125 C 3.125 -1.984375 2.601562 -2.609375 2.1875 -3.328125 C 1.769531 -4.046875 1.457031 -4.820312 1.25 -5.65625 C 1.050781 -6.5 0.953125 -7.367188 0.953125 -8.265625 C 0.953125 -9.160156 1.050781 -10.023438 1.25 -10.859375 C 1.457031 -11.691406 1.769531 -12.46875 2.1875 -13.1875 C 2.601562 -13.90625 3.125 -14.53125 3.75 -15.0625 C 4.382812 -15.59375 5.128906 -16.003906 5.984375 -16.296875 C 6.847656 -16.597656 7.828125 -16.75 8.921875 -16.75 C 10.015625 -16.75 10.988281 -16.597656 11.84375 -16.296875 C 12.707031 -16.003906 13.453125 -15.59375 14.078125 -15.0625 C 14.710938 -14.53125 15.238281 -13.90625 15.65625 -13.1875 C 16.070312 -12.46875 16.378906 -11.691406 16.578125 -10.859375 C 16.785156 -10.023438 16.890625 -9.160156 16.890625 -8.265625 C 16.890625 -7.367188 16.785156 -6.5 16.578125 -5.65625 C 16.378906 -4.820312 16.070312 -4.046875 15.65625 -3.328125 C 15.238281 -2.609375 14.710938 -1.984375 14.078125 -1.453125 C 13.453125 -0.921875 12.707031 -0.503906 11.84375 -0.203125 C 10.988281 0.0859375 10.015625 0.234375 8.921875 0.234375 Z M 8.921875 -2.390625 C 9.804688 -2.390625 10.554688 -2.546875 11.171875 -2.859375 C 11.785156 -3.179688 12.28125 -3.613281 12.65625 -4.15625 C 13.039062 -4.695312 13.320312 -5.320312 13.5 -6.03125 C 13.675781 -6.738281 13.765625 -7.484375 13.765625 -8.265625 C 13.765625 -9.035156 13.675781 -9.769531 13.5 -10.46875 C 13.320312 -11.175781 13.039062 -11.800781 12.65625 -12.34375 C 12.28125 -12.882812 11.785156 -13.3125 11.171875 -13.625 C 10.554688 -13.945312 9.804688 -14.109375 8.921875 -14.109375 C 8.035156 -14.109375 7.285156 -13.945312 6.671875 -13.625 C 6.054688 -13.3125 5.554688 -12.882812 5.171875 -12.34375 C 4.796875 -11.800781 4.519531 -11.175781 4.34375 -10.46875 C 4.175781 -9.769531 4.09375 -9.035156 4.09375 -8.265625 C 4.09375 -7.484375 4.175781 -6.738281 4.34375 -6.03125 C 4.519531 -5.320312 4.796875 -4.695312 5.171875 -4.15625 C 5.554688 -3.613281 6.054688 -3.179688 6.671875 -2.859375 C 7.285156 -2.546875 8.035156 -2.390625 8.921875 -2.390625 Z M 8.921875 -2.390625 "/></g></g></g><g fill="#000000" fill-opacity="1"><g transform="translate(918.829368, 488.982475)"><g><path d="M 2.125 0 L 2.125 -16.5 L 5.0625 -16.5 L 12 -4.953125 L 12 -16.5 L 14.859375 -16.5 L 14.859375 0 L 11.890625 0 L 4.96875 -11.578125 L 4.96875 0 Z M 2.125 0 "/></g></g></g><g fill="#000000" fill-opacity="1"><g transform="translate(937.715827, 488.982475)"><g><path d="M 2.125 0 L 2.125 -16.5 L 6.921875 -16.5 C 8.796875 -16.5 10.367188 -16.171875 11.640625 -15.515625 C 12.910156 -14.867188 13.867188 -13.921875 14.515625 -12.671875 C 15.171875 -11.429688 15.5 -9.914062 15.5 -8.125 C 15.5 -6.414062 15.164062 -4.953125 14.5 -3.734375 C 13.832031 -2.523438 12.859375 -1.597656 11.578125 -0.953125 C 10.304688 -0.316406 8.742188 0 6.890625 0 Z M 5.09375 -2.71875 L 6.59375 -2.71875 C 7.507812 -2.71875 8.332031 -2.8125 9.0625 -3 C 9.789062 -3.195312 10.410156 -3.507812 10.921875 -3.9375 C 11.441406 -4.375 11.835938 -4.945312 12.109375 -5.65625 C 12.390625 -6.363281 12.53125 -7.234375 12.53125 -8.265625 C 12.53125 -9.566406 12.34375 -10.625 11.96875 -11.4375 C 11.59375 -12.25 10.988281 -12.84375 10.15625 -13.21875 C 9.320312 -13.59375 8.226562 -13.78125 6.875 -13.78125 L 5.09375 -13.78125 Z M 5.09375 -2.71875 "/></g></g></g><g fill="#000000" fill-opacity="1"><g transform="translate(956.077001, 488.982475)"><g><path d="M 8.921875 0.234375 C 7.828125 0.234375 6.847656 0.0859375 5.984375 -0.203125 C 5.128906 -0.503906 4.382812 -0.921875 3.75 -1.453125 C 3.125 -1.984375 2.601562 -2.609375 2.1875 -3.328125 C 1.769531 -4.046875 1.457031 -4.820312 1.25 -5.65625 C 1.050781 -6.5 0.953125 -7.367188 0.953125 -8.265625 C 0.953125 -9.160156 1.050781 -10.023438 1.25 -10.859375 C 1.457031 -11.691406 1.769531 -12.46875 2.1875 -13.1875 C 2.601562 -13.90625 3.125 -14.53125 3.75 -15.0625 C 4.382812 -15.59375 5.128906 -16.003906 5.984375 -16.296875 C 6.847656 -16.597656 7.828125 -16.75 8.921875 -16.75 C 10.015625 -16.75 10.988281 -16.597656 11.84375 -16.296875 C 12.707031 -16.003906 13.453125 -15.59375 14.078125 -15.0625 C 14.710938 -14.53125 15.238281 -13.90625 15.65625 -13.1875 C 16.070312 -12.46875 16.378906 -11.691406 16.578125 -10.859375 C 16.785156 -10.023438 16.890625 -9.160156 16.890625 -8.265625 C 16.890625 -7.367188 16.785156 -6.5 16.578125 -5.65625 C 16.378906 -4.820312 16.070312 -4.046875 15.65625 -3.328125 C 15.238281 -2.609375 14.710938 -1.984375 14.078125 -1.453125 C 13.453125 -0.921875 12.707031 -0.503906 11.84375 -0.203125 C 10.988281 0.0859375 10.015625 0.234375 8.921875 0.234375 Z M 8.921875 -2.390625 C 9.804688 -2.390625 10.554688 -2.546875 11.171875 -2.859375 C 11.785156 -3.179688 12.28125 -3.613281 12.65625 -4.15625 C 13.039062 -4.695312 13.320312 -5.320312 13.5 -6.03125 C 13.675781 -6.738281 13.765625 -7.484375 13.765625 -8.265625 C 13.765625 -9.035156 13.675781 -9.769531 13.5 -10.46875 C 13.320312 -11.175781 13.039062 -11.800781 12.65625 -12.34375 C 12.28125 -12.882812 11.785156 -13.3125 11.171875 -13.625 C 10.554688 -13.945312 9.804688 -14.109375 8.921875 -14.109375 C 8.035156 -14.109375 7.285156 -13.945312 6.671875 -13.625 C 6.054688 -13.3125 5.554688 -12.882812 5.171875 -12.34375 C 4.796875 -11.800781 4.519531 -11.175781 4.34375 -10.46875 C 4.175781 -9.769531 4.09375 -9.035156 4.09375 -8.265625 C 4.09375 -7.484375 4.175781 -6.738281 4.34375 -6.03125 C 4.519531 -5.320312 4.796875 -4.695312 5.171875 -4.15625 C 5.554688 -3.613281 6.054688 -3.179688 6.671875 -2.859375 C 7.285156 -2.546875 8.035156 -2.390625 8.921875 -2.390625 Z M 8.921875 -2.390625 "/></g></g></g><g fill="#000000" fill-opacity="1"><g transform="translate(975.827259, 488.982475)"><g><path d="M 2.125 0 L 2.125 -16.5 L 6.125 -16.5 L 10.5 -4.765625 L 14.875 -16.5 L 18.875 -16.5 L 18.875 0 L 16.03125 0 L 16.03125 -12.34375 L 11.9375 -1.4375 L 9.0625 -1.4375 L 4.96875 -12.34375 L 4.96875 0 Z M 2.125 0 "/></g></g></g><g fill="#000000" fill-opacity="1"><g transform="translate(998.729221, 488.982475)"><g><path d="M 2.125 0 L 2.125 -16.5 L 5.09375 -16.5 L 5.09375 0 Z M 2.125 0 "/></g></g></g><g fill="#000000" fill-opacity="1"><g transform="translate(1007.857073, 488.982475)"><g><path d="M 2.125 0 L 2.125 -16.5 L 5.0625 -16.5 L 12 -4.953125 L 12 -16.5 L 14.859375 -16.5 L 14.859375 0 L 11.890625 0 L 4.96875 -11.578125 L 4.96875 0 Z M 2.125 0 "/></g></g></g><g fill="#000000" fill-opacity="1"><g transform="translate(1026.743532, 488.982475)"><g><path d="M 2.125 0 L 2.125 -16.5 L 5.09375 -16.5 L 5.09375 0 Z M 2.125 0 "/></g></g></g><g fill="#000000" fill-opacity="1"><g transform="translate(1035.871385, 488.982475)"><g><path d="M 0.140625 0 L 6.75 -16.5 L 8.96875 -16.5 L 15.546875 0 L 12.34375 0 L 11.078125 -3.59375 L 4.65625 -3.59375 L 3.375 0 Z M 5.671875 -6.125 L 10.0625 -6.125 L 7.875 -12.140625 Z M 5.671875 -6.125 "/></g></g></g><g fill="#000000" fill-opacity="1"><g transform="translate(1053.462144, 488.982475)"><g><path d="M 2.125 0 L 2.125 -16.5 L 5.09375 -16.5 L 5.09375 -2.796875 L 12.140625 -2.796875 L 12.140625 0 Z M 2.125 0 "/></g></g></g><g fill="#000000" fill-opacity="1"><g transform="translate(384.376393, 437.482294)"><g><path d="M 28.609375 0.78125 C 25.554688 0.78125 22.570312 0.359375 19.65625 -0.484375 C 16.738281 -1.335938 14.066406 -2.597656 11.640625 -4.265625 C 9.222656 -5.941406 7.179688 -8.050781 5.515625 -10.59375 C 3.859375 -13.132812 2.753906 -16.097656 2.203125 -19.484375 L 14.5 -22.609375 C 14.789062 -19.742188 15.613281 -17.398438 16.96875 -15.578125 C 18.320312 -13.753906 20.019531 -12.398438 22.0625 -11.515625 C 24.113281 -10.640625 26.363281 -10.203125 28.8125 -10.203125 C 31.28125 -10.203125 33.351562 -10.59375 35.03125 -11.375 C 36.707031 -12.15625 37.984375 -13.210938 38.859375 -14.546875 C 39.742188 -15.878906 40.1875 -17.363281 40.1875 -19 C 40.1875 -20.789062 39.710938 -22.316406 38.765625 -23.578125 C 37.828125 -24.847656 36.566406 -25.945312 34.984375 -26.875 C 33.410156 -27.800781 31.628906 -28.664062 29.640625 -29.46875 C 27.648438 -30.269531 25.597656 -31.082031 23.484375 -31.90625 C 21.367188 -32.738281 19.316406 -33.679688 17.328125 -34.734375 C 15.347656 -35.796875 13.566406 -37.050781 11.984375 -38.5 C 10.410156 -39.945312 9.148438 -41.6875 8.203125 -43.71875 C 7.253906 -45.757812 6.78125 -48.179688 6.78125 -50.984375 C 6.78125 -54.035156 7.347656 -56.738281 8.484375 -59.09375 C 9.628906 -61.457031 11.203125 -63.453125 13.203125 -65.078125 C 15.210938 -66.710938 17.507812 -67.941406 20.09375 -68.765625 C 22.675781 -69.597656 25.421875 -70.015625 28.328125 -70.015625 C 32.585938 -70.015625 36.554688 -69.046875 40.234375 -67.109375 C 43.910156 -65.171875 46.9375 -62.101562 49.3125 -57.90625 L 39.015625 -51.609375 C 37.804688 -53.953125 36.222656 -55.765625 34.265625 -57.046875 C 32.316406 -58.335938 30.1875 -58.984375 27.875 -58.984375 C 26.25 -58.984375 24.773438 -58.671875 23.453125 -58.046875 C 22.140625 -57.429688 21.097656 -56.570312 20.328125 -55.46875 C 19.566406 -54.363281 19.1875 -53.078125 19.1875 -51.609375 C 19.1875 -49.984375 19.65625 -48.59375 20.59375 -47.4375 C 21.539062 -46.28125 22.804688 -45.269531 24.390625 -44.40625 C 25.972656 -43.539062 27.753906 -42.726562 29.734375 -41.96875 C 31.722656 -41.207031 33.773438 -40.410156 35.890625 -39.578125 C 38.003906 -38.742188 40.050781 -37.789062 42.03125 -36.71875 C 44.019531 -35.644531 45.800781 -34.367188 47.375 -32.890625 C 48.957031 -31.410156 50.222656 -29.628906 51.171875 -27.546875 C 52.117188 -25.460938 52.59375 -22.988281 52.59375 -20.125 C 52.59375 -16.863281 51.960938 -13.9375 50.703125 -11.34375 C 49.453125 -8.757812 47.726562 -6.5625 45.53125 -4.75 C 43.332031 -2.945312 40.785156 -1.570312 37.890625 -0.625 C 34.992188 0.3125 31.898438 0.78125 28.609375 0.78125 Z M 28.609375 0.78125 "/></g></g></g><g fill="#000000" fill-opacity="1"><g transform="translate(439.891805, 437.482294)"><g><path d="M 7.078125 0 L 7.078125 -48.78125 L 19.09375 -48.78125 L 19.09375 -43.703125 C 20.71875 -45.910156 22.617188 -47.476562 24.796875 -48.40625 C 26.984375 -49.34375 29.21875 -49.8125 31.5 -49.8125 C 34.457031 -49.8125 37.082031 -49.101562 39.375 -47.6875 C 41.675781 -46.269531 43.625 -44.113281 45.21875 -41.21875 C 47.132812 -44.207031 49.515625 -46.382812 52.359375 -47.75 C 55.210938 -49.125 58.21875 -49.8125 61.375 -49.8125 C 64.5 -49.8125 67.191406 -49.234375 69.453125 -48.078125 C 71.722656 -46.921875 73.597656 -45.363281 75.078125 -43.40625 C 76.554688 -41.457031 77.644531 -39.257812 78.34375 -36.8125 C 79.039062 -34.375 79.390625 -31.867188 79.390625 -29.296875 L 79.390625 0 L 67.28125 0 L 67.28125 -27.78125 C 67.28125 -29.800781 67.050781 -31.632812 66.59375 -33.28125 C 66.144531 -34.925781 65.347656 -36.242188 64.203125 -37.234375 C 63.066406 -38.222656 61.472656 -38.71875 59.421875 -38.71875 C 57.273438 -38.71875 55.4375 -38.171875 53.90625 -37.078125 C 52.375 -35.992188 51.207031 -34.554688 50.40625 -32.765625 C 49.613281 -30.972656 49.21875 -28.988281 49.21875 -26.8125 L 49.21875 0 L 37.109375 0 L 37.109375 -27.984375 C 37.109375 -29.960938 36.890625 -31.757812 36.453125 -33.375 C 36.015625 -34.988281 35.238281 -36.28125 34.125 -37.25 C 33.019531 -38.226562 31.441406 -38.71875 29.390625 -38.71875 C 27.242188 -38.71875 25.394531 -38.171875 23.84375 -37.078125 C 22.300781 -35.992188 21.125 -34.554688 20.3125 -32.765625 C 19.5 -30.972656 19.09375 -28.988281 19.09375 -26.8125 L 19.09375 0 Z M 7.078125 0 "/></g></g></g><g fill="#000000" fill-opacity="1"><g transform="translate(524.995904, 437.482294)"><g><path d="M 20.40625 0.984375 C 17.09375 0.984375 14.09375 0.363281 11.40625 -0.875 C 8.71875 -2.113281 6.59375 -3.925781 5.03125 -6.3125 C 3.46875 -8.707031 2.6875 -11.597656 2.6875 -14.984375 C 2.6875 -17.628906 3.179688 -19.851562 4.171875 -21.65625 C 5.171875 -23.457031 6.546875 -24.90625 8.296875 -26 C 10.054688 -27.09375 12.113281 -27.882812 14.46875 -28.375 C 16.832031 -28.863281 19.382812 -29.109375 22.125 -29.109375 L 34.8125 -29.109375 C 34.8125 -32.191406 34 -34.675781 32.375 -36.5625 C 30.75 -38.457031 28.359375 -39.40625 25.203125 -39.40625 C 23.335938 -39.40625 21.664062 -39.078125 20.1875 -38.421875 C 18.707031 -37.773438 17.4375 -36.929688 16.375 -35.890625 C 15.320312 -34.847656 14.4375 -33.722656 13.71875 -32.515625 L 4.59375 -39.109375 C 6.15625 -41.253906 7.910156 -43.125 9.859375 -44.71875 C 11.816406 -46.320312 14.046875 -47.570312 16.546875 -48.46875 C 19.054688 -49.363281 21.90625 -49.8125 25.09375 -49.8125 C 29.519531 -49.8125 33.300781 -48.953125 36.4375 -47.234375 C 39.582031 -45.523438 41.992188 -43.148438 43.671875 -40.109375 C 45.347656 -37.066406 46.1875 -33.5625 46.1875 -29.59375 L 46.1875 0 L 36.375 0 L 35.59375 -6.984375 C 33.507812 -3.921875 31.179688 -1.828125 28.609375 -0.703125 C 26.035156 0.421875 23.300781 0.984375 20.40625 0.984375 Z M 22.125 -9.078125 C 23.8125 -9.078125 25.410156 -9.378906 26.921875 -9.984375 C 28.441406 -10.585938 29.78125 -11.425781 30.9375 -12.5 C 32.09375 -13.570312 33.019531 -14.789062 33.71875 -16.15625 C 34.414062 -17.53125 34.78125 -18.984375 34.8125 -20.515625 L 22.796875 -20.515625 C 20.097656 -20.515625 18.101562 -19.910156 16.8125 -18.703125 C 15.53125 -17.492188 14.890625 -16.125 14.890625 -14.59375 C 14.890625 -13 15.515625 -11.679688 16.765625 -10.640625 C 18.023438 -9.597656 19.8125 -9.078125 22.125 -9.078125 Z M 22.125 -9.078125 "/></g></g></g><g fill="#000000" fill-opacity="1"><g transform="translate(576.800524, 437.482294)"><g><path d="M 7.078125 0 L 7.078125 -48.78125 L 18.703125 -48.78125 L 18.703125 -40.578125 C 19.421875 -42.566406 20.453125 -44.242188 21.796875 -45.609375 C 23.148438 -46.972656 24.695312 -48.015625 26.4375 -48.734375 C 28.175781 -49.453125 29.957031 -49.8125 31.78125 -49.8125 C 33.414062 -49.8125 35.019531 -49.523438 36.59375 -48.953125 C 38.175781 -48.378906 39.550781 -47.492188 40.71875 -46.296875 L 35.296875 -36.53125 C 33.640625 -37.632812 31.867188 -38.1875 29.984375 -38.1875 C 28.578125 -38.1875 27.195312 -37.851562 25.84375 -37.1875 C 24.5 -36.519531 23.28125 -35.476562 22.1875 -34.0625 C 21.101562 -32.644531 20.234375 -30.820312 19.578125 -28.59375 C 18.929688 -26.363281 18.609375 -23.703125 18.609375 -20.609375 L 18.609375 0 Z M 7.078125 0 "/></g></g></g><g fill="#000000" fill-opacity="1"><g transform="translate(616.593895, 437.482294)"><g><path d="M 24.421875 0.984375 C 21.222656 0.984375 18.476562 0.394531 16.1875 -0.78125 C 13.894531 -1.957031 12.132812 -3.625 10.90625 -5.78125 C 9.6875 -7.945312 9.078125 -10.515625 9.078125 -13.484375 L 9.078125 -38.8125 L 1.21875 -38.8125 L 1.21875 -48.78125 L 9.28125 -48.78125 L 9.28125 -60.890625 L 20.90625 -69.390625 L 20.90625 -48.78125 L 33.203125 -48.78125 L 33.203125 -38.8125 L 20.90625 -38.8125 L 20.90625 -15.578125 C 20.90625 -13.234375 21.429688 -11.632812 22.484375 -10.78125 C 23.546875 -9.9375 24.859375 -9.515625 26.421875 -9.515625 C 27.648438 -9.515625 28.882812 -9.707031 30.125 -10.09375 C 31.363281 -10.488281 32.390625 -10.882812 33.203125 -11.28125 L 33.203125 -0.484375 C 32.296875 -0.160156 31.023438 0.160156 29.390625 0.484375 C 27.765625 0.816406 26.109375 0.984375 24.421875 0.984375 Z M 24.421875 0.984375 "/></g></g></g><g fill="#000000" fill-opacity="1"><g transform="translate(755.573169, 438.232294)"><g><path d="M 37.40625 0.984375 C 32.875 0.984375 28.8125 0.363281 25.21875 -0.875 C 21.625 -2.113281 18.5 -3.835938 15.84375 -6.046875 C 13.1875 -8.265625 10.976562 -10.863281 9.21875 -13.84375 C 7.46875 -16.820312 6.160156 -20.066406 5.296875 -23.578125 C 4.429688 -27.097656 4 -30.742188 4 -34.515625 C 4 -38.296875 4.429688 -41.941406 5.296875 -45.453125 C 6.160156 -48.972656 7.460938 -52.222656 9.203125 -55.203125 C 10.941406 -58.179688 13.128906 -60.789062 15.765625 -63.03125 C 18.410156 -65.28125 21.53125 -67.023438 25.125 -68.265625 C 28.71875 -69.503906 32.78125 -70.125 37.3125 -70.125 C 41.863281 -70.125 46.078125 -69.363281 49.953125 -67.84375 C 53.828125 -66.332031 57.253906 -64.101562 60.234375 -61.15625 C 63.210938 -58.207031 65.628906 -54.585938 67.484375 -50.296875 L 55.90625 -45.703125 C 55.0625 -48.734375 53.734375 -51.164062 51.921875 -53 C 50.117188 -54.84375 47.960938 -56.1875 45.453125 -57.03125 C 42.953125 -57.875 40.203125 -58.296875 37.203125 -58.296875 C 33.554688 -58.296875 30.414062 -57.691406 27.78125 -56.484375 C 25.144531 -55.285156 22.976562 -53.613281 21.28125 -51.46875 C 19.59375 -49.320312 18.34375 -46.835938 17.53125 -44.015625 C 16.71875 -41.203125 16.3125 -38.203125 16.3125 -35.015625 C 16.3125 -31.597656 16.71875 -28.414062 17.53125 -25.46875 C 18.34375 -22.519531 19.601562 -19.945312 21.3125 -17.75 C 23.019531 -15.550781 25.203125 -13.84375 27.859375 -12.625 C 30.515625 -11.40625 33.695312 -10.796875 37.40625 -10.796875 C 41.863281 -10.796875 45.628906 -11.769531 48.703125 -13.71875 C 51.785156 -15.675781 54.253906 -18.960938 56.109375 -23.578125 L 67.578125 -18.890625 C 65.753906 -14.597656 63.351562 -10.976562 60.375 -8.03125 C 57.394531 -5.082031 53.96875 -2.84375 50.09375 -1.3125 C 46.21875 0.21875 41.988281 0.984375 37.40625 0.984375 Z M 37.40625 0.984375 "/></g></g></g><g fill="#000000" fill-opacity="1"><g transform="translate(825.492309, 438.232294)"><g><path d="M 27.484375 0.984375 C 23.710938 0.984375 20.296875 0.304688 17.234375 -1.046875 C 14.171875 -2.398438 11.539062 -4.25 9.34375 -6.59375 C 7.15625 -8.9375 5.460938 -11.644531 4.265625 -14.71875 C 3.078125 -17.800781 2.484375 -21.066406 2.484375 -24.515625 C 2.484375 -27.960938 3.078125 -31.207031 4.265625 -34.25 C 5.460938 -37.289062 7.15625 -39.972656 9.34375 -42.296875 C 11.539062 -44.628906 14.171875 -46.460938 17.234375 -47.796875 C 20.296875 -49.140625 23.710938 -49.8125 27.484375 -49.8125 C 31.265625 -49.8125 34.679688 -49.140625 37.734375 -47.796875 C 40.796875 -46.460938 43.425781 -44.628906 45.625 -42.296875 C 47.820312 -39.972656 49.515625 -37.289062 50.703125 -34.25 C 51.890625 -31.207031 52.484375 -27.960938 52.484375 -24.515625 C 52.484375 -21.066406 51.890625 -17.800781 50.703125 -14.71875 C 49.515625 -11.644531 47.820312 -8.9375 45.625 -6.59375 C 43.425781 -4.25 40.796875 -2.398438 37.734375 -1.046875 C 34.679688 0.304688 31.265625 0.984375 27.484375 0.984375 Z M 27.484375 -9.28125 C 29.734375 -9.28125 31.660156 -9.691406 33.265625 -10.515625 C 34.878906 -11.347656 36.179688 -12.472656 37.171875 -13.890625 C 38.171875 -15.304688 38.90625 -16.929688 39.375 -18.765625 C 39.851562 -20.609375 40.09375 -22.523438 40.09375 -24.515625 C 40.09375 -26.535156 39.851562 -28.4375 39.375 -30.21875 C 38.90625 -32.007812 38.171875 -33.601562 37.171875 -35 C 36.179688 -36.40625 34.878906 -37.503906 33.265625 -38.296875 C 31.660156 -39.097656 29.734375 -39.5 27.484375 -39.5 C 24.492188 -39.5 22.070312 -38.804688 20.21875 -37.421875 C 18.363281 -36.046875 17.007812 -34.21875 16.15625 -31.9375 C 15.3125 -29.65625 14.890625 -27.179688 14.890625 -24.515625 C 14.890625 -22.523438 15.125 -20.609375 15.59375 -18.765625 C 16.070312 -16.929688 16.816406 -15.304688 17.828125 -13.890625 C 18.835938 -12.472656 20.140625 -11.347656 21.734375 -10.515625 C 23.328125 -9.691406 25.242188 -9.28125 27.484375 -9.28125 Z M 27.484375 -9.28125 "/></g></g></g><g fill="#000000" fill-opacity="1"><g transform="translate(880.568279, 438.232294)"><g><path d="M 7.078125 0 L 7.078125 -48.78125 L 18.890625 -48.78125 L 18.890625 -43.109375 C 20.191406 -44.710938 21.65625 -46 23.28125 -46.96875 C 24.914062 -47.945312 26.59375 -48.664062 28.3125 -49.125 C 30.039062 -49.582031 31.703125 -49.8125 33.296875 -49.8125 C 36.492188 -49.8125 39.210938 -49.234375 41.453125 -48.078125 C 43.703125 -46.921875 45.523438 -45.359375 46.921875 -43.390625 C 48.328125 -41.421875 49.351562 -39.210938 50 -36.765625 C 50.65625 -34.328125 50.984375 -31.835938 50.984375 -29.296875 L 50.984375 0 L 39.203125 0 L 39.203125 -27.78125 C 39.203125 -29.925781 38.851562 -31.828125 38.15625 -33.484375 C 37.457031 -35.148438 36.414062 -36.453125 35.03125 -37.390625 C 33.644531 -38.335938 31.929688 -38.8125 29.890625 -38.8125 C 26.535156 -38.8125 23.863281 -37.859375 21.875 -35.953125 C 19.882812 -34.054688 18.890625 -30.972656 18.890625 -26.703125 L 18.890625 0 Z M 7.078125 0 "/></g></g></g><g fill="#000000" fill-opacity="1"><g transform="translate(937.255521, 438.232294)"><g><path d="M 37.890625 -69 L 50 -69 L 50 0 L 38.921875 0 L 38.375 -5.46875 C 36.6875 -3.1875 34.578125 -1.539062 32.046875 -0.53125 C 29.523438 0.476562 26.914062 0.984375 24.21875 0.984375 C 20.800781 0.984375 17.773438 0.304688 15.140625 -1.046875 C 12.503906 -2.398438 10.289062 -4.253906 8.5 -6.609375 C 6.707031 -8.972656 5.351562 -11.675781 4.4375 -14.71875 C 3.53125 -17.757812 3.078125 -20.992188 3.078125 -24.421875 C 3.078125 -27.804688 3.53125 -31.019531 4.4375 -34.0625 C 5.351562 -37.101562 6.695312 -39.800781 8.46875 -42.15625 C 10.25 -44.519531 12.441406 -46.382812 15.046875 -47.75 C 17.648438 -49.125 20.644531 -49.8125 24.03125 -49.8125 C 26.5625 -49.8125 29.082031 -49.351562 31.59375 -48.4375 C 34.101562 -47.53125 36.203125 -46.015625 37.890625 -43.890625 Z M 27.09375 -9.8125 C 29.832031 -9.8125 32.070312 -10.453125 33.8125 -11.734375 C 35.550781 -13.023438 36.835938 -14.769531 37.671875 -16.96875 C 38.503906 -19.164062 38.921875 -21.648438 38.921875 -24.421875 C 38.921875 -27.148438 38.503906 -29.613281 37.671875 -31.8125 C 36.835938 -34.007812 35.550781 -35.757812 33.8125 -37.0625 C 32.070312 -38.363281 29.832031 -39.015625 27.09375 -39.015625 C 24.363281 -39.015625 22.117188 -38.363281 20.359375 -37.0625 C 18.597656 -35.757812 17.296875 -34 16.453125 -31.78125 C 15.609375 -29.570312 15.1875 -27.117188 15.1875 -24.421875 C 15.1875 -21.679688 15.609375 -19.203125 16.453125 -16.984375 C 17.296875 -14.773438 18.597656 -13.023438 20.359375 -11.734375 C 22.117188 -10.453125 24.363281 -9.8125 27.09375 -9.8125 Z M 27.09375 -9.8125 "/></g></g></g><g fill="#000000" fill-opacity="1"><g transform="translate(994.431036, 438.232294)"><g><path d="M 27.484375 0.984375 C 23.710938 0.984375 20.296875 0.304688 17.234375 -1.046875 C 14.171875 -2.398438 11.539062 -4.25 9.34375 -6.59375 C 7.15625 -8.9375 5.460938 -11.644531 4.265625 -14.71875 C 3.078125 -17.800781 2.484375 -21.066406 2.484375 -24.515625 C 2.484375 -27.960938 3.078125 -31.207031 4.265625 -34.25 C 5.460938 -37.289062 7.15625 -39.972656 9.34375 -42.296875 C 11.539062 -44.628906 14.171875 -46.460938 17.234375 -47.796875 C 20.296875 -49.140625 23.710938 -49.8125 27.484375 -49.8125 C 31.265625 -49.8125 34.679688 -49.140625 37.734375 -47.796875 C 40.796875 -46.460938 43.425781 -44.628906 45.625 -42.296875 C 47.820312 -39.972656 49.515625 -37.289062 50.703125 -34.25 C 51.890625 -31.207031 52.484375 -27.960938 52.484375 -24.515625 C 52.484375 -21.066406 51.890625 -17.800781 50.703125 -14.71875 C 49.515625 -11.644531 47.820312 -8.9375 45.625 -6.59375 C 43.425781 -4.25 40.796875 -2.398438 37.734375 -1.046875 C 34.679688 0.304688 31.265625 0.984375 27.484375 0.984375 Z M 27.484375 -9.28125 C 29.734375 -9.28125 31.660156 -9.691406 33.265625 -10.515625 C 34.878906 -11.347656 36.179688 -12.472656 37.171875 -13.890625 C 38.171875 -15.304688 38.90625 -16.929688 39.375 -18.765625 C 39.851562 -20.609375 40.09375 -22.523438 40.09375 -24.515625 C 40.09375 -26.535156 39.851562 -28.4375 39.375 -30.21875 C 38.90625 -32.007812 38.171875 -33.601562 37.171875 -35 C 36.179688 -36.40625 34.878906 -37.503906 33.265625 -38.296875 C 31.660156 -39.097656 29.734375 -39.5 27.484375 -39.5 C 24.492188 -39.5 22.070312 -38.804688 20.21875 -37.421875 C 18.363281 -36.046875 17.007812 -34.21875 16.15625 -31.9375 C 15.3125 -29.65625 14.890625 -27.179688 14.890625 -24.515625 C 14.890625 -22.523438 15.125 -20.609375 15.59375 -18.765625 C 16.070312 -16.929688 16.816406 -15.304688 17.828125 -13.890625 C 18.835938 -12.472656 20.140625 -11.347656 21.734375 -10.515625 C 23.328125 -9.691406 25.242188 -9.28125 27.484375 -9.28125 Z M 27.484375 -9.28125 "/></g></g></g></svg>